<?xml version="1.0" standalone="no"?>
<!DOCTYPE svg PUBLIC "-//W3C//DTD SVG 20010904//EN"
 "http://www.w3.org/TR/2001/REC-SVG-20010904/DTD/svg10.dtd">
<svg version="1.0" xmlns="http://www.w3.org/2000/svg"
 width="812.000000pt" height="401.000000pt" viewBox="0 0 812.000000 401.000000"
 preserveAspectRatio="xMidYMid meet">

<g transform="translate(0.000000,401.000000) scale(0.100000,-0.100000)"
fill="#000000" stroke="none">
<path d="M1840 3825 c0 -8 5 -15 10 -15 6 0 10 7 10 15 0 8 -4 15 -10 15 -5 0
-10 -7 -10 -15z"/>
<path d="M1917 3834 c-8 -8 1 -24 14 -24 5 0 9 7 9 15 0 15 -12 20 -23 9z"/>
<path d="M1997 3834 c-8 -8 1 -24 14 -24 5 0 9 7 9 15 0 15 -12 20 -23 9z"/>
<path d="M1686 3823 c-11 -11 -6 -23 9 -23 8 0 15 4 15 9 0 13 -16 22 -24 14z"/>
<path d="M1760 3820 c0 -5 7 -10 15 -10 8 0 15 5 15 10 0 6 -7 10 -15 10 -8 0
-15 -4 -15 -10z"/>
<path d="M2072 3819 c2 -6 8 -10 13 -10 5 0 11 4 13 10 2 6 -4 11 -13 11 -9 0
-15 -5 -13 -11z"/>
<path d="M2156 3823 c-11 -11 -6 -23 9 -23 8 0 15 4 15 9 0 13 -16 22 -24 14z"/>
<path d="M1602 3799 c2 -6 8 -10 13 -10 5 0 11 4 13 10 2 6 -4 11 -13 11 -9 0
-15 -5 -13 -11z"/>
<path d="M2232 3799 c2 -6 8 -10 13 -10 5 0 11 4 13 10 2 6 -4 11 -13 11 -9 0
-15 -5 -13 -11z"/>
<path d="M1527 3794 c-8 -8 1 -24 14 -24 5 0 9 7 9 15 0 15 -12 20 -23 9z"/>
<path d="M2310 3785 c0 -8 5 -15 10 -15 6 0 10 7 10 15 0 8 -4 15 -10 15 -5 0
-10 -7 -10 -15z"/>
<path d="M1450 3765 c0 -9 5 -15 11 -13 6 2 11 8 11 13 0 5 -5 11 -11 13 -6 2
-11 -4 -11 -13z"/>
<path d="M2387 3774 c-8 -8 1 -24 14 -24 5 0 9 7 9 15 0 15 -12 20 -23 9z"/>
<path d="M1376 3753 c-11 -11 -6 -23 9 -23 8 0 15 4 15 9 0 13 -16 22 -24 14z"/>
<path d="M2460 3745 c0 -9 5 -15 11 -13 6 2 11 8 11 13 0 5 -5 11 -11 13 -6 2
-11 -4 -11 -13z"/>
<path d="M1300 3715 c0 -9 5 -15 11 -13 6 2 11 8 11 13 0 5 -5 11 -11 13 -6 2
-11 -4 -11 -13z"/>
<path d="M1917 3655 c-19 -56 -22 -75 -12 -75 7 0 15 9 18 20 3 13 14 20 30
20 17 0 28 -7 32 -20 3 -11 12 -20 20 -20 10 0 8 17 -12 75 -14 43 -30 75 -38
75 -8 0 -24 -32 -38 -75z m52 -7 c1 -5 -6 -8 -14 -8 -16 0 -19 9 -8 36 6 16 7
16 14 -2 4 -10 8 -22 8 -26z"/>
<path d="M2532 3719 c2 -6 8 -10 13 -10 5 0 11 4 13 10 2 6 -4 11 -13 11 -9 0
-15 -5 -13 -11z"/>
<path d="M1673 3640 c10 -70 10 -70 41 -70 49 0 76 24 76 69 0 50 -24 71 -81
71 l-45 0 9 -70z m88 24 c12 -34 4 -61 -23 -69 -26 -9 -34 1 -41 53 -5 41 -4
42 24 42 23 0 32 -6 40 -26z"/>
<path d="M2136 3688 c-3 -13 -9 -44 -14 -70 l-10 -48 55 0 c52 0 55 1 68 35
25 57 -7 105 -69 105 -18 0 -27 -6 -30 -22z m65 -8 c22 -12 26 -59 7 -78 -7
-7 -22 -12 -35 -12 -25 0 -28 13 -17 69 7 33 14 37 45 21z"/>
<path d="M1222 3689 c2 -6 8 -10 13 -10 5 0 11 4 13 10 2 6 -4 11 -13 11 -9 0
-15 -5 -13 -11z"/>
<path d="M2610 3690 c0 -5 5 -10 10 -10 6 0 10 5 10 10 0 6 -4 10 -10 10 -5 0
-10 -4 -10 -10z"/>
<path d="M1510 3663 c1 -43 27 -118 43 -121 14 -3 15 1 7 25 -5 15 -14 47 -20
71 -11 42 -30 58 -30 25z"/>
<path d="M1152 3659 c2 -6 8 -10 13 -10 5 0 11 4 13 10 2 6 -4 11 -13 11 -9 0
-15 -5 -13 -11z"/>
<path d="M2680 3655 c0 -9 5 -15 11 -13 6 2 11 8 11 13 0 5 -5 11 -11 13 -6 2
-11 -4 -11 -13z"/>
<path d="M1086 3633 c-11 -11 -6 -23 9 -23 8 0 15 4 15 9 0 13 -16 22 -24 14z"/>
<path d="M2756 3633 c-11 -11 -6 -23 9 -23 8 0 15 4 15 9 0 13 -16 22 -24 14z"/>
<path d="M1365 3625 c-5 -2 -22 -6 -37 -9 -31 -7 -45 -40 -28 -61 8 -9 30 -15
56 -15 24 0 44 -4 44 -9 0 -14 -23 -29 -49 -33 -14 -1 -26 -8 -28 -14 -5 -16
58 -5 80 14 21 19 22 58 1 66 -9 3 -31 6 -50 6 -24 0 -34 5 -34 15 0 10 10 15
30 15 20 0 30 5 30 15 0 8 -1 15 -2 14 -2 0 -7 -2 -13 -4z"/>
<path d="M2458 3571 c-29 -34 -43 -60 -37 -65 5 -6 14 -4 21 7 19 25 58 12 58
-19 0 -15 6 -24 15 -24 20 0 22 145 2 153 -8 3 -33 -19 -59 -52z m42 -11 c0
-11 -7 -20 -15 -20 -18 0 -19 12 -3 28 16 16 18 15 18 -8z"/>
<path d="M1017 3593 c-12 -11 -8 -23 8 -23 8 0 15 7 15 15 0 16 -12 20 -23 8z"/>
<path d="M2820 3585 c0 -9 5 -15 11 -13 6 2 11 8 11 13 0 5 -5 11 -11 13 -6 2
-11 -4 -11 -13z"/>
<path d="M947 3554 c-8 -8 1 -24 14 -24 5 0 9 7 9 15 0 15 -12 20 -23 9z"/>
<path d="M2887 3554 c-8 -8 1 -24 14 -24 5 0 9 7 9 15 0 15 -12 20 -23 9z"/>
<path d="M2655 3500 c-14 -27 -25 -56 -25 -64 0 -21 44 -48 71 -44 28 4 86 95
70 111 -7 7 -17 -6 -32 -36 -24 -48 -39 -60 -64 -51 -21 9 -18 32 9 81 19 33
21 43 10 47 -9 4 -22 -11 -39 -44z"/>
<path d="M1105 3513 c-16 -8 -32 -17 -34 -19 -2 -2 52 -106 65 -123 1 -1 8 0
14 4 8 5 6 14 -5 31 -14 21 -14 25 -1 30 8 3 26 -2 41 -12 17 -11 29 -14 36
-7 6 6 0 14 -16 23 -17 9 -23 19 -20 31 8 24 -12 59 -33 59 -9 -1 -30 -8 -47
-17z m55 -28 c0 -8 -9 -19 -19 -25 -16 -8 -22 -6 -30 7 -7 14 -5 21 12 30 24
13 37 9 37 -12z"/>
<path d="M880 3500 c0 -5 7 -10 15 -10 8 0 15 5 15 10 0 6 -7 10 -15 10 -8 0
-15 -4 -15 -10z"/>
<path d="M1840 3495 c0 -9 5 -15 11 -13 6 2 11 8 11 13 0 5 -5 11 -11 13 -6 2
-11 -4 -11 -13z"/>
<path d="M1917 3504 c-8 -8 1 -24 14 -24 5 0 9 7 9 15 0 15 -12 20 -23 9z"/>
<path d="M1996 3503 c-11 -11 -6 -23 9 -23 8 0 15 4 15 9 0 13 -16 22 -24 14z"/>
<path d="M2950 3500 c0 -5 7 -10 15 -10 8 0 15 5 15 10 0 6 -7 10 -15 10 -8 0
-15 -4 -15 -10z"/>
<path d="M1762 3489 c2 -6 8 -10 13 -10 5 0 11 4 13 10 2 6 -4 11 -13 11 -9 0
-15 -5 -13 -11z"/>
<path d="M2072 3489 c2 -6 8 -10 13 -10 5 0 11 4 13 10 2 6 -4 11 -13 11 -9 0
-15 -5 -13 -11z"/>
<path d="M1687 3484 c-8 -8 1 -24 14 -24 5 0 9 7 9 15 0 15 -12 20 -23 9z"/>
<path d="M2150 3475 c0 -8 5 -15 10 -15 6 0 10 7 10 15 0 8 -4 15 -10 15 -5 0
-10 -7 -10 -15z"/>
<path d="M1610 3465 c0 -9 5 -15 11 -13 6 2 11 8 11 13 0 5 -5 11 -11 13 -6 2
-11 -4 -11 -13z"/>
<path d="M2226 3473 c-11 -11 -6 -23 9 -23 8 0 15 4 15 9 0 13 -16 22 -24 14z"/>
<path d="M817 3464 c-8 -8 1 -24 14 -24 5 0 9 7 9 15 0 15 -12 20 -23 9z"/>
<path d="M3017 3464 c-8 -8 1 -24 14 -24 5 0 9 7 9 15 0 15 -12 20 -23 9z"/>
<path d="M1537 3454 c-8 -8 1 -24 14 -24 5 0 9 7 9 15 0 15 -12 20 -23 9z"/>
<path d="M2300 3445 c0 -9 5 -15 11 -13 6 2 11 8 11 13 0 5 -5 11 -11 13 -6 2
-11 -4 -11 -13z"/>
<path d="M1460 3426 c0 -9 7 -16 16 -16 9 0 14 5 12 12 -6 18 -28 21 -28 4z"/>
<path d="M2376 3433 c-11 -11 -6 -23 9 -23 8 0 15 4 15 9 0 13 -16 22 -24 14z"/>
<path d="M1815 3423 c-16 -2 -45 -6 -63 -9 l-32 -5 26 -34 c44 -58 80 -175 54
-175 -5 0 -10 -18 -10 -40 0 -36 3 -40 25 -40 18 0 25 -5 25 -20 0 -11 -4 -20
-9 -20 -21 0 -101 -93 -117 -137 -10 -27 -32 -65 -48 -86 -33 -42 -36 -58 -36
-245 0 -40 24 -89 47 -96 15 -5 17 -15 15 -49 -3 -30 1 -47 12 -56 10 -9 16
-29 16 -56 0 -48 18 -70 50 -60 18 6 19 4 9 -18 -19 -41 -133 -52 -165 -16
-28 32 -126 96 -196 129 -309 146 -608 7 -608 -283 0 -164 79 -326 234 -481
60 -60 82 -91 120 -171 25 -54 46 -102 46 -108 0 -5 -14 -25 -31 -45 -120
-136 -92 -324 54 -367 28 -8 69 -15 92 -15 50 0 69 -14 85 -62 7 -22 18 -38
27 -38 11 0 14 -8 11 -35 -5 -41 0 -42 36 -14 21 16 26 29 26 62 -1 73 -38
102 -144 113 -73 7 -96 25 -96 75 0 26 52 109 69 109 5 0 20 -15 32 -33 117
-168 339 -369 515 -466 40 -22 42 -23 75 -6 141 72 364 266 486 423 36 45 69
82 74 82 12 0 69 -89 69 -107 0 -8 -7 -27 -15 -42 -13 -25 -21 -29 -81 -35
-108 -11 -146 -41 -146 -114 0 -27 7 -42 27 -59 35 -30 47 -29 35 3 -11 29 -6
44 15 44 8 0 20 18 26 41 15 48 26 55 105 62 109 9 174 58 193 145 16 77 -23
195 -85 253 l-23 22 23 46 c13 25 34 71 47 101 15 38 48 82 104 140 93 98 134
155 175 243 94 200 75 366 -55 485 -62 57 -120 80 -215 89 -145 12 -318 -53
-469 -176 -35 -28 -50 -35 -79 -32 -78 6 -107 36 -57 59 21 10 25 19 25 52 0
22 7 52 16 66 11 16 15 36 11 58 -4 28 -1 36 18 46 13 7 27 20 30 29 11 26 16
169 6 175 -4 3 -5 24 -1 47 7 36 4 45 -20 72 -15 18 -40 60 -55 95 -19 42 -44
78 -77 107 -54 48 -62 75 -23 75 23 0 25 4 25 40 0 22 -4 40 -10 40 -28 0 3
104 51 171 12 17 18 33 15 37 -16 16 -222 26 -311 15z m105 -53 c4 -27 7 -31
13 -17 4 10 7 28 7 39 0 28 32 19 41 -12 7 -24 7 -24 8 -2 1 15 7 22 21 22 14
0 20 -7 21 -22 l0 -23 9 23 c6 12 18 22 30 22 26 0 25 -4 -10 -74 -17 -32 -30
-74 -30 -92 l0 -34 -98 0 -98 0 -12 58 c-6 31 -23 74 -37 94 -31 46 -31 48 -1
48 17 0 28 -8 35 -27 l11 -28 -4 28 c-3 23 0 27 20 27 18 0 24 -6 27 -32 4
-32 4 -32 5 5 2 31 6 38 20 35 11 -2 19 -15 22 -38z m130 -210 c0 -18 -7 -20
-82 -20 l-83 1 35 19 c20 11 55 19 83 20 40 0 47 -3 47 -20z m-45 -95 c20 -8
34 -18 33 -23 -2 -5 11 -21 27 -36 23 -21 25 -26 10 -21 -16 5 -14 0 10 -25
l30 -31 -64 33 c-84 43 -151 45 -233 6 -32 -15 -58 -25 -58 -23 0 3 24 20 52
40 57 38 57 43 3 21 -47 -20 -44 -13 8 19 26 17 33 25 20 22 -31 -7 -29 -1 5
17 35 19 113 20 157 1z m38 -123 c34 -17 82 -52 107 -79 25 -26 34 -38 20 -27
-14 12 -41 29 -60 38 l-35 17 30 -23 c16 -13 41 -33 55 -46 23 -22 21 -21 -25
4 l-50 27 35 -31 c19 -17 38 -31 43 -32 4 0 7 -4 7 -10 0 -5 -17 -1 -37 10
-107 55 -245 61 -371 15 -78 -28 -61 -9 33 36 72 35 44 38 -37 5 -32 -13 -58
-22 -58 -21 0 2 26 20 58 40 62 40 36 38 -38 -2 l-45 -24 40 36 c22 19 72 51
110 71 84 43 124 42 218 -4z m-43 -131 c24 -5 46 -15 49 -23 2 -7 22 -31 44
-53 39 -40 39 -40 34 -101 -14 -148 -106 -274 -199 -274 -95 0 -198 151 -198
291 0 39 5 52 33 81 17 18 37 42 42 52 17 30 111 43 195 27z m-246 -62 c-18
-20 -44 -26 -44 -10 0 5 12 19 27 31 32 25 45 10 17 -21z m374 14 c17 -17 22
-28 14 -31 -15 -5 -39 13 -53 40 -15 27 7 23 39 -9z m-441 -122 c-28 -11 -40
56 -16 86 12 14 15 11 19 -33 3 -27 1 -51 -3 -53z m511 46 c-2 -18 -12 -36
-27 -46 -23 -15 -24 -15 -13 6 7 12 12 38 12 59 0 32 2 35 16 24 9 -8 14 -25
12 -43z m-493 -108 c9 -17 14 -33 11 -36 -10 -11 -56 28 -56 47 0 30 28 24 45
-11z m495 16 c0 -17 -35 -55 -50 -55 -15 0 -12 22 6 48 17 25 44 29 44 7z
m-450 -148 c0 -19 -4 -27 -12 -25 -15 5 -22 42 -13 66 5 14 7 14 15 2 6 -8 10
-28 10 -43z m388 1 c-2 -12 -8 -23 -14 -25 -18 -6 -25 24 -13 55 9 24 11 25
20 9 6 -10 9 -27 7 -39z m-805 -57 c65 -23 160 -72 197 -102 19 -16 13 -14
-30 7 -50 24 -185 74 -199 74 -3 0 28 -18 69 -40 41 -22 88 -54 105 -70 l30
-31 -59 35 c-71 43 -165 75 -237 81 l-54 5 61 -18 c72 -22 138 -59 177 -99
l27 -29 -77 38 c-43 21 -94 41 -113 44 -33 6 -32 4 17 -22 29 -15 67 -42 84
-60 l33 -34 -65 35 c-99 53 -184 79 -264 79 -65 0 -83 -5 -158 -42 -5 -2 -2 9
7 26 33 64 110 121 193 142 56 14 190 4 256 -19z m1498 2 c59 -26 115 -77 140
-126 l21 -40 -30 22 c-83 59 -227 46 -387 -34 l-90 -45 39 35 c21 19 62 46 90
61 l51 26 -40 -7 c-22 -3 -76 -24 -120 -46 -79 -40 -80 -40 -52 -11 35 37 113
80 186 103 70 22 32 25 -57 4 -62 -15 -195 -75 -207 -95 -3 -5 -12 -10 -18
-10 -23 1 65 68 136 104 40 21 59 34 42 30 -46 -10 -155 -54 -202 -81 -67 -39
-50 -19 23 27 129 82 228 111 350 106 52 -2 97 -11 125 -23z m-1066 -61 c-3
-3 -10 -1 -17 6 -8 8 -7 19 3 44 l14 33 3 -39 c2 -21 1 -41 -3 -44z m347 43
c9 -19 9 -28 0 -37 -15 -15 -20 -9 -28 30 -8 39 11 44 28 7z m-49 -90 l8 -30
-131 0 c-71 0 -130 3 -130 7 0 3 5 29 12 57 l11 50 30 -16 c40 -20 116 -13
153 15 l29 21 6 -37 c3 -20 9 -50 12 -67z m-890 -56 c34 -11 86 -34 116 -51
l53 -31 -78 -37 c-44 -21 -104 -54 -134 -73 -30 -20 -58 -33 -62 -29 -18 19
-60 118 -70 165 -17 80 -10 91 58 83 31 -3 83 -16 117 -27z m1693 16 c11 -29
-37 -180 -74 -233 -7 -10 -29 0 -96 42 -48 30 -107 62 -131 72 -25 9 -42 21
-39 26 8 13 112 63 169 81 93 29 163 34 171 12z m-801 -25 c262 -25 478 -97
660 -220 105 -71 102 -61 65 -192 -140 -502 -426 -904 -805 -1132 l-57 -35
-66 41 c-169 103 -359 283 -485 458 -126 177 -287 537 -327 733 -13 67 -21 56
92 132 244 165 591 246 923 215z m822 -108 c-18 -76 -5 -71 24 8 12 33 23 60
25 60 6 0 -19 -148 -32 -185 -5 -16 -3 -16 11 4 10 13 26 49 36 80 10 31 18
46 18 33 1 -33 -28 -171 -44 -209 -8 -18 -12 -33 -10 -33 7 0 58 94 81 153
l25 62 -7 -50 c-7 -60 -40 -146 -85 -222 -37 -60 -165 -200 -154 -168 23 72
65 227 71 261 5 36 3 44 -17 57 l-22 16 36 78 c20 43 39 96 44 118 5 27 8 33
11 19 2 -12 -3 -49 -11 -82z m-1868 -71 l30 -59 -20 -18 c-26 -24 -22 -66 22
-209 17 -55 33 -109 36 -120 16 -54 -125 114 -180 215 -39 72 -67 158 -67 204
1 26 4 20 21 -29 18 -52 65 -145 74 -145 2 0 -6 27 -16 61 -11 34 -22 86 -25
117 l-5 57 23 -55 c13 -30 30 -64 37 -75 l13 -20 -7 20 c-13 38 -35 150 -34
175 0 17 6 7 19 -29 11 -30 25 -60 31 -65 9 -8 10 -6 5 9 -4 11 -10 45 -12 75
l-4 55 15 -52 c8 -29 28 -79 44 -112z m1675 -811 c55 -100 42 -197 -33 -247
-49 -33 -56 -30 -53 25 3 41 -1 54 -32 100 -40 57 -31 69 15 22 27 -27 30 -27
23 -7 -3 12 -13 35 -21 50 -14 28 -14 28 7 17 12 -6 31 -30 42 -53 l19 -42 -4
42 c-3 23 -12 56 -21 74 -22 43 -14 47 18 9 31 -37 33 -22 6 39 -27 58 -2 37
34 -29z m-1500 25 c-21 -50 -17 -61 11 -31 34 36 37 33 15 -16 -11 -24 -20
-56 -20 -73 l0 -30 23 39 c29 52 52 61 32 12 -22 -52 -18 -58 14 -25 43 42 57
36 21 -9 -38 -48 -54 -100 -40 -136 8 -22 7 -26 -9 -26 -25 0 -78 44 -96 81
-28 54 -12 153 35 220 28 38 32 37 14 -6z"/>
<path d="M1805 2722 c9 -9 79 -31 84 -27 8 9 -8 18 -49 25 -22 4 -38 5 -35 2z"/>
<path d="M2012 2720 c-35 -8 -49 -17 -40 -25 3 -3 25 3 49 14 47 21 44 24 -9
11z"/>
<path d="M1791 2681 c-21 -13 -4 -31 30 -31 20 0 29 5 29 16 0 9 5 12 12 8 7
-4 8 -3 4 4 -8 14 -55 16 -75 3z"/>
<path d="M1989 2673 c-13 -17 -13 -17 5 -3 18 14 19 13 13 -2 -5 -15 -1 -18
28 -18 37 0 56 17 34 31 -23 15 -66 10 -80 -8z"/>
<path d="M1880 2536 c0 -2 7 -7 16 -10 8 -3 12 -2 9 4 -6 10 -25 14 -25 6z"/>
<path d="M1950 2530 c-9 -6 -10 -10 -3 -10 6 0 15 5 18 10 8 12 4 12 -15 0z"/>
<path d="M1880 2480 c-19 -12 36 -22 77 -14 23 4 31 9 22 15 -16 10 -82 9 -99
-1z"/>
<path d="M1918 2433 c6 -2 18 -2 25 0 6 3 1 5 -13 5 -14 0 -19 -2 -12 -5z"/>
<path d="M1809 2189 c-178 -12 -410 -79 -559 -162 -75 -42 -170 -108 -170
-119 0 -5 28 11 63 36 132 94 330 176 512 213 126 25 424 25 548 0 178 -36
364 -112 492 -201 80 -56 85 -59 85 -49 0 15 -154 112 -250 157 -216 102 -452
143 -721 125z"/>
<path d="M1740 2143 c-19 -3 -39 -9 -45 -14 -12 -12 72 -1 95 12 17 9 16 9
-50 2z"/>
<path d="M2056 2135 c144 -17 306 -57 417 -105 48 -21 87 -34 87 -30 0 12
-134 68 -228 96 -110 31 -250 54 -327 53 -51 -1 -43 -3 51 -14z"/>
<path d="M1815 2118 c-16 -6 -47 -23 -67 -39 -35 -28 -37 -28 -43 -9 -6 19
-42 46 -51 38 -2 -3 0 -18 5 -35 5 -17 7 -59 4 -95 -5 -54 -2 -67 13 -83 11
-10 24 -32 29 -49 8 -24 16 -32 40 -34 20 -2 26 0 17 6 -14 9 -20 67 -9 79 4
3 7 -2 7 -13 0 -10 9 -32 20 -49 24 -37 27 -85 5 -85 -9 0 -15 6 -13 13 5 19
-14 24 -25 5 -22 -34 41 -66 71 -36 20 20 14 54 -20 107 -30 49 -33 85 -3 45
14 -19 14 -19 15 1 0 11 -7 30 -15 43 -13 17 -14 26 -4 44 26 50 70 52 100 6
17 -27 20 -45 16 -103 -4 -72 -22 -121 -61 -164 -33 -37 -61 -43 -109 -25 -23
9 -70 20 -104 24 -94 11 -166 51 -255 141 -76 76 -78 78 -78 48 0 -16 7 -45
14 -64 8 -19 11 -35 6 -35 -5 0 -30 16 -55 36 -26 19 -50 33 -53 29 -12 -11
41 -96 82 -132 l41 -36 -35 7 c-19 3 -47 15 -62 26 -32 23 -34 20 -14 -18 17
-33 50 -64 91 -85 26 -14 27 -16 8 -17 -12 0 -34 5 -49 10 -26 10 -26 10 -12
-12 8 -13 39 -38 69 -57 l54 -33 -47 6 c-27 3 -48 2 -48 -4 0 -18 66 -59 120
-73 51 -13 53 -15 27 -22 -15 -4 -42 -5 -59 -1 -31 6 -31 6 -13 -14 20 -22 73
-40 120 -40 l30 -1 -39 -21 c-35 -18 -37 -21 -22 -30 10 -6 40 -8 67 -6 59 6
63 -5 9 -28 -27 -12 -36 -20 -27 -26 17 -11 81 -10 111 2 36 13 32 -4 -6 -30
l-33 -22 63 5 c53 4 64 2 72 -13 16 -31 12 -33 -50 -27 -33 3 -60 3 -60 1 0
-17 34 -65 57 -83 36 -27 10 -28 -39 -1 l-36 19 9 -32 c13 -44 40 -79 77 -98
44 -23 60 -37 75 -68 13 -28 53 -39 84 -23 13 8 24 5 42 -9 31 -25 81 -24 110
2 17 16 26 18 34 10 6 -6 27 -11 47 -11 39 0 65 20 71 54 2 10 11 22 19 26 59
27 75 38 91 60 11 14 22 40 25 58 l7 33 -34 -20 c-19 -12 -43 -21 -54 -21 -17
0 -16 3 9 19 26 17 66 67 66 83 0 3 -28 4 -62 1 -55 -6 -61 -4 -55 11 4 10 7
22 7 26 0 5 30 7 68 4 l67 -6 -32 21 c-44 28 -42 41 5 28 21 -6 55 -7 77 -2
l40 7 -41 18 c-63 27 -63 39 -1 33 30 -3 63 -1 73 5 16 9 14 12 -18 25 -35 15
-66 43 -33 31 28 -11 100 6 130 31 l30 24 -41 -6 c-23 -3 -50 -1 -59 4 -15 9
-11 11 21 17 46 9 119 49 127 70 5 12 -3 14 -46 10 l-52 -4 40 19 c39 18 110
79 102 87 -2 3 -16 0 -31 -6 -15 -5 -37 -10 -49 -9 -21 0 -21 1 3 10 39 16 89
58 105 89 21 41 20 42 -27 15 -72 -41 -87 -32 -33 20 63 62 109 170 48 113
-32 -28 -74 -58 -84 -58 -4 0 -1 21 7 47 8 25 14 57 14 71 0 22 -4 20 -39 -23
-81 -98 -216 -185 -288 -185 -18 0 -53 -5 -77 -12 -71 -19 -76 -9 -76 136 0
106 -3 127 -24 171 -46 100 -145 146 -241 113z m-105 -189 c0 -11 -4 -17 -10
-14 -5 3 -10 15 -10 26 0 11 5 17 10 14 6 -3 10 -15 10 -26z m-191 -264 c19
-9 53 -23 75 -30 24 -8 33 -13 20 -14 -41 -2 -124 30 -153 60 -38 38 -41 62
-3 27 15 -14 42 -33 61 -43z m902 47 c-23 -43 -89 -80 -158 -88 l-48 -5 58 20
c60 20 85 34 126 70 29 26 35 26 22 3z m-961 -71 c0 -13 71 -54 127 -72 l58
-19 -45 5 c-64 9 -100 24 -137 59 -35 32 -43 49 -18 40 8 -4 15 -9 15 -13z
m961 1 c-24 -45 -85 -76 -166 -86 l-50 -6 61 18 c59 18 108 46 134 77 17 21
33 19 21 -3z m-598 -26 c-7 -47 12 -53 39 -12 24 38 38 45 38 22 0 -8 8 -24
18 -36 l18 -22 11 24 c6 12 14 32 17 42 6 17 10 15 32 -17 31 -47 47 -48 42
-3 -2 19 0 32 4 30 11 -7 10 -82 -1 -88 -5 -3 -22 9 -37 27 l-29 32 -15 -29
c-21 -41 -35 -42 -56 -7 l-18 30 -28 -32 c-23 -27 -29 -30 -38 -17 -11 17 -13
51 -4 74 10 26 13 18 7 -18z m-325 -71 c20 -13 61 -29 90 -35 62 -14 70 -24
10 -15 -69 10 -104 24 -128 50 -30 32 -20 32 28 0z m898 6 c-25 -28 -73 -48
-131 -54 l-50 -6 68 23 c37 12 76 30 85 39 9 10 23 17 31 17 11 0 11 -4 -3
-19z m-584 -68 c13 -16 25 -9 48 29 l17 29 22 -36 c24 -42 37 -41 68 3 l21 32
22 -35 c12 -19 25 -35 30 -35 4 0 15 17 23 38 15 34 16 35 16 11 1 -15 -8 -37
-19 -50 l-20 -24 -30 35 c-17 19 -30 29 -30 23 0 -5 -9 -22 -21 -37 -23 -30
-46 -24 -68 17 l-13 25 -29 -32 c-28 -30 -30 -30 -44 -12 -8 11 -14 34 -14 50
2 28 2 28 6 6 3 -14 9 -31 15 -37z m-188 -34 c46 -1 48 -2 21 -10 -38 -11 -95
-2 -134 22 -49 30 -36 41 15 14 31 -17 64 -25 98 -26z m736 21 c-35 -27 -108
-42 -145 -31 -28 9 -26 9 21 10 33 1 66 9 95 25 50 26 66 24 29 -4z m-341 -90
c5 0 19 12 31 28 l22 27 -21 -35 c-18 -32 -51 -53 -51 -33 0 4 -4 15 -10 23
-7 12 -14 9 -36 -15 l-27 -29 -25 30 c-14 16 -27 24 -29 19 -13 -37 -23 -40
-48 -12 -14 15 -25 33 -25 40 0 7 8 0 18 -15 20 -34 28 -35 43 -5 6 12 13 24
15 26 2 2 15 -10 29 -25 l26 -29 26 32 27 32 13 -30 c6 -16 16 -29 22 -29z
m-384 10 l50 -8 -56 -1 c-44 -1 -62 4 -80 19 l-24 20 30 -11 c17 -6 53 -15 80
-19z m695 25 c0 -15 -66 -35 -112 -34 l-53 1 58 9 c32 5 65 13 75 18 19 11 32
14 32 6z m-640 -78 c24 1 30 -1 20 -7 -23 -15 -74 -12 -96 5 -18 14 -17 15 11
8 17 -4 46 -7 65 -6z m200 -14 c0 -16 -5 -35 -10 -43 -9 -13 -14 -11 -35 13
-14 15 -25 33 -25 39 0 5 8 0 18 -12 21 -26 42 -20 42 11 0 10 2 19 5 19 3 0
5 -12 5 -27z m356 12 c-23 -17 -74 -19 -96 -4 -12 8 -9 9 10 5 14 -3 39 -1 55
3 44 13 52 12 31 -4z m-251 -35 c8 0 21 10 29 22 9 12 16 17 16 11 0 -7 -11
-25 -25 -40 -21 -24 -26 -26 -35 -13 -5 8 -9 26 -8 40 1 23 1 24 5 3 2 -13 11
-23 18 -23z m-36 -39 c6 -19 11 -52 12 -75 0 -38 1 -39 10 -16 11 28 48 70 61
70 5 0 28 9 50 20 23 11 43 20 45 20 2 0 3 -15 3 -33 0 -40 -21 -72 -62 -93
-40 -21 -30 -28 15 -9 35 14 137 19 137 6 0 -11 -52 -57 -85 -75 -30 -17 -30
-17 37 -13 l67 5 -15 -29 c-13 -26 -59 -59 -83 -59 -21 0 -80 46 -81 62 0 25
-40 58 -70 58 -14 0 -35 -7 -48 -15 -19 -14 -25 -14 -52 0 -37 19 -86 12 -100
-14 -6 -12 -32 -23 -70 -32 -42 -9 -56 -16 -45 -22 23 -12 19 -36 -5 -30 -20
5 -70 57 -70 72 0 4 30 5 68 4 l67 -4 -39 20 c-46 24 -64 39 -76 62 -9 15 -3
17 49 18 39 0 71 -6 97 -19 l39 -20 -30 25 c-59 50 -65 58 -65 97 l0 38 57
-25 c66 -30 82 -42 93 -70 6 -17 9 -13 15 20 4 22 14 57 23 78 12 31 17 36 27
25 7 -7 17 -28 24 -47z m-50 -200 c19 -19 20 -19 37 0 13 14 28 19 53 17 30
-2 39 -9 53 -38 10 -19 27 -38 38 -42 41 -15 38 -80 -5 -100 -30 -13 -75 3
-75 27 0 10 -10 4 -28 -16 -36 -40 -86 -43 -117 -6 -21 23 -21 23 -47 4 -21
-15 -29 -17 -47 -8 -11 7 -21 20 -21 30 0 11 -7 22 -16 25 -20 8 -15 55 8 70
13 8 23 8 38 -2 17 -10 20 -10 20 5 0 48 73 70 109 34z"/>
<path d="M1915 1159 c-4 -17 -4 -33 -1 -36 3 -4 6 -1 6 6 0 7 6 11 13 8 10 -4
12 3 9 24 -6 38 -19 37 -27 -2z"/>
<path d="M1810 1173 c0 -16 19 -37 34 -39 21 -3 20 9 -2 29 -20 18 -32 22 -32
10z"/>
<path d="M2022 1173 c-7 -2 -17 -13 -22 -24 -9 -15 -8 -17 6 -12 12 4 15 3 10
-5 -4 -7 -5 -12 -2 -12 3 0 12 14 21 30 15 29 13 34 -13 23z"/>
<path d="M1710 1115 c0 -2 14 -12 31 -21 17 -8 28 -11 25 -5 -4 6 -1 11 6 12
18 1 -22 17 -44 18 -10 1 -18 -1 -18 -4z"/>
<path d="M2095 1112 c-13 -9 -17 -32 -6 -32 5 0 19 9 32 20 23 18 23 19 4 20
-11 0 -24 -4 -30 -8z"/>
<path d="M2118 1033 c6 -2 10 -9 6 -14 -7 -11 26 -12 44 0 10 6 8 10 -10 14
-28 8 -59 8 -40 0z"/>
<path d="M1495 2086 c-101 -35 -218 -84 -201 -85 6 -1 56 17 112 39 56 22 125
45 153 52 28 6 51 15 51 20 0 12 -6 11 -115 -26z"/>
<path d="M2024 2102 c3 -5 38 -12 78 -16 95 -9 243 -46 338 -86 102 -42 108
-44 86 -26 -33 27 -175 77 -286 101 -128 28 -224 40 -216 27z"/>
<path d="M1505 2046 c-129 -43 -185 -66 -185 -77 0 -4 31 5 69 21 38 16 105
40 150 53 77 22 110 37 80 37 -8 -1 -59 -16 -114 -34z"/>
<path d="M2125 2045 c145 -30 213 -48 298 -82 108 -42 127 -38 23 6 -99 41
-246 80 -326 86 l-65 4 70 -14z"/>
<path d="M1605 2035 c-5 -2 -46 -15 -91 -29 -96 -30 -179 -65 -172 -72 3 -2
38 9 79 25 41 16 103 37 139 47 62 17 100 35 70 33 -8 0 -19 -2 -25 -4z"/>
<path d="M2086 2012 c5 -5 45 -14 89 -21 44 -7 125 -28 180 -47 130 -45 147
-50 115 -30 -38 23 -194 72 -289 90 -96 18 -109 19 -95 8z"/>
<path d="M1227 1969 c-22 -11 -37 -23 -34 -25 6 -7 63 22 72 36 8 13 7 13 -38
-11z"/>
<path d="M1505 1960 c-126 -44 -146 -52 -142 -57 3 -2 65 16 138 41 74 25 123
45 109 45 -14 0 -61 -13 -105 -29z"/>
<path d="M2590 1983 c0 -10 68 -48 75 -41 3 2 -13 15 -35 27 -22 12 -40 19
-40 14z"/>
<path d="M1828 1973 c6 -2 18 -2 25 0 6 3 1 5 -13 5 -14 0 -19 -2 -12 -5z"/>
<path d="M2100 1970 c0 -4 21 -11 46 -15 69 -10 190 -43 256 -70 32 -13 58
-20 58 -15 0 18 -165 69 -342 105 -10 2 -18 0 -18 -5z"/>
<path d="M1240 1930 c-14 -11 -20 -20 -14 -20 14 0 50 27 44 33 -3 3 -16 -3
-30 -13z"/>
<path d="M1515 1921 c-99 -35 -133 -50 -118 -50 12 -1 225 68 232 75 13 12
-44 -1 -114 -25z"/>
<path d="M1833 1933 c9 -2 25 -2 35 0 9 3 1 5 -18 5 -19 0 -27 -2 -17 -5z"/>
<path d="M2604 1925 c11 -8 25 -15 30 -15 6 0 2 7 -8 15 -11 8 -25 15 -30 15
-6 0 -2 -7 8 -15z"/>
<path d="M1127 1903 c-20 -14 -37 -31 -37 -36 0 -7 32 13 79 50 2 2 2 5 0 8
-3 2 -22 -7 -42 -22z"/>
<path d="M2111 1926 c2 -2 52 -16 111 -30 59 -14 124 -32 144 -41 20 -8 44
-15 53 -14 9 0 -6 9 -34 21 -83 34 -294 83 -274 64z"/>
<path d="M2690 1923 c0 -5 12 -18 28 -29 41 -30 52 -36 52 -27 -1 11 -80 66
-80 56z"/>
<path d="M1513 1878 c-51 -16 -91 -33 -88 -37 2 -4 48 7 102 26 120 40 123 41
98 42 -11 0 -62 -14 -112 -31z"/>
<path d="M1250 1890 c-13 -8 -12 -10 3 -10 9 0 17 5 17 10 0 12 -1 12 -20 0z"/>
<path d="M1848 1893 c6 -2 18 -2 25 0 6 3 1 5 -13 5 -14 0 -19 -2 -12 -5z"/>
<path d="M2590 1890 c0 -5 5 -10 11 -10 5 0 7 5 4 10 -3 6 -8 10 -11 10 -2 0
-4 -4 -4 -10z"/>
<path d="M2114 1881 c4 -6 17 -11 29 -11 12 0 65 -12 117 -26 133 -37 139 -38
119 -25 -20 13 -170 56 -228 66 -31 5 -42 4 -37 -4z"/>
<path d="M2680 1883 c0 -5 12 -18 28 -29 41 -30 52 -36 52 -27 -1 11 -80 66
-80 56z"/>
<path d="M1125 1855 c-16 -13 -27 -26 -24 -29 3 -3 21 8 40 24 41 35 27 40
-16 5z"/>
<path d="M1536 1844 c-43 -14 -75 -28 -72 -31 5 -5 88 17 176 47 l25 8 -25 0
c-14 0 -60 -11 -104 -24z"/>
<path d="M1830 1851 c0 -4 11 -6 25 -3 14 2 25 6 25 8 0 2 -11 4 -25 4 -14 0
-25 -4 -25 -9z"/>
<path d="M2110 1840 c0 -6 10 -10 23 -10 13 0 57 -9 98 -20 41 -11 88 -23 104
-25 29 -5 29 -5 5 5 -65 29 -230 64 -230 50z"/>
<path d="M1135 1815 c-43 -35 -27 -39 19 -4 22 16 33 29 25 29 -8 -1 -27 -12
-44 -25z"/>
<path d="M1655 1832 c-48 -9 -156 -44 -152 -48 4 -5 166 35 176 43 8 6 -4 9
-24 5z"/>
<path d="M2700 1810 c35 -29 50 -36 50 -22 0 8 -62 52 -75 52 -5 0 6 -13 25
-30z"/>
<path d="M1850 1809 c0 -5 5 -7 10 -4 6 3 10 8 10 11 0 2 -4 4 -10 4 -5 0 -10
-5 -10 -11z"/>
<path d="M1157 1783 c-20 -14 -37 -31 -37 -36 0 -7 32 13 79 50 2 2 2 5 0 8
-3 2 -22 -7 -42 -22z"/>
<path d="M2110 1801 c0 -3 35 -14 78 -23 42 -9 86 -20 96 -24 13 -5 17 -4 13
3 -4 6 -39 18 -79 27 -103 24 -108 25 -108 17z"/>
<path d="M2660 1804 c0 -13 70 -67 77 -60 4 3 4 7 2 9 -45 36 -79 58 -79 51z"/>
<path d="M1625 1783 c-33 -8 -64 -20 -70 -25 -7 -7 -2 -9 15 -4 14 4 49 12 78
18 28 7 52 16 52 20 0 10 -2 10 -75 -9z"/>
<path d="M1670 1750 c-24 -8 -24 -8 7 -9 17 -1 35 4 38 9 7 11 -9 11 -45 0z"/>
<path d="M2125 1750 c17 -4 44 -8 60 -8 29 0 29 0 5 8 -14 4 -41 8 -60 8 l-35
0 30 -8z"/>
<path d="M1150 1730 c-14 -10 -22 -21 -20 -24 3 -2 16 4 30 14 14 10 22 21 20
24 -3 2 -16 -4 -30 -14z"/>
<path d="M2680 1743 c0 -5 9 -18 20 -28 11 -10 20 -14 20 -8 0 5 -9 18 -20 28
-11 10 -20 14 -20 8z"/>
<path d="M1160 1690 c-14 -11 -20 -20 -14 -20 14 0 50 27 44 33 -3 3 -16 -3
-30 -13z"/>
<path d="M2680 1685 c13 -14 26 -23 28 -20 7 7 -29 45 -41 45 -6 0 0 -11 13
-25z"/>
<path d="M1176 1654 c-11 -7 -17 -16 -15 -19 3 -3 14 2 25 9 10 8 17 17 14 19
-3 3 -14 -1 -24 -9z"/>
<path d="M2660 1663 c0 -13 29 -38 35 -31 3 3 -4 13 -15 23 -11 10 -20 13 -20
8z"/>
<path d="M1186 1615 c-11 -8 -17 -17 -14 -20 3 -3 16 3 29 14 27 23 14 28 -15
6z"/>
<path d="M2655 1610 c10 -11 20 -18 23 -15 7 6 -18 35 -31 35 -5 0 -2 -9 8
-20z"/>
<path d="M1205 1580 c-10 -11 -14 -20 -8 -20 5 0 18 9 28 20 10 11 14 20 8 20
-5 0 -18 -9 -28 -20z"/>
<path d="M2620 1594 c0 -5 12 -18 27 -28 16 -12 24 -14 21 -6 -5 16 -48 46
-48 34z"/>
<path d="M1210 1535 c-7 -8 -8 -15 -2 -15 5 0 15 7 22 15 7 8 8 15 2 15 -5 0
-15 -7 -22 -15z"/>
<path d="M2630 1535 c7 -8 17 -15 22 -15 6 0 5 7 -2 15 -7 8 -17 15 -22 15 -6
0 -5 -7 2 -15z"/>
<path d="M1230 1505 c-20 -24 -6 -28 15 -5 10 11 13 20 8 20 -6 0 -16 -7 -23
-15z"/>
<path d="M2600 1513 c0 -5 9 -14 20 -21 11 -7 20 -8 20 -2 0 5 -9 14 -20 20
-11 6 -20 7 -20 3z"/>
<path d="M1245 1470 c-10 -11 -14 -20 -8 -20 5 0 18 9 28 20 10 11 14 20 8 20
-5 0 -18 -9 -28 -20z"/>
<path d="M2580 1480 c0 -5 9 -14 20 -20 11 -6 20 -7 20 -3 0 5 -9 14 -20 21
-11 7 -20 8 -20 2z"/>
<path d="M1269 1441 c-13 -11 -22 -22 -19 -24 3 -3 16 3 29 14 13 11 22 22 19
25 -3 2 -16 -4 -29 -15z"/>
<path d="M2570 1435 c7 -8 20 -15 28 -15 13 0 12 3 -4 15 -25 19 -40 19 -24 0z"/>
<path d="M1284 1406 c-10 -8 -17 -17 -14 -19 3 -3 16 3 30 13 29 22 14 27 -16
6z"/>
<path d="M2555 1400 c10 -11 23 -20 28 -20 6 0 2 9 -8 20 -10 11 -23 20 -28
20 -6 0 -2 -9 8 -20z"/>
<path d="M1300 1370 c-33 -26 -14 -26 25 0 17 11 23 20 15 20 -8 0 -26 -9 -40
-20z"/>
<path d="M2530 1370 c33 -26 52 -25 21 0 -13 11 -28 20 -35 20 -6 0 0 -9 14
-20z"/>
<path d="M1330 1345 c-19 -14 -28 -25 -20 -25 8 0 29 11 45 25 39 32 20 31
-25 0z"/>
<path d="M2480 1363 c0 -4 16 -18 36 -31 20 -13 35 -19 32 -12 -4 14 -68 55
-68 43z"/>
<path d="M1345 1305 c-16 -13 -25 -24 -20 -24 6 0 24 11 40 24 17 14 26 25 20
25 -5 0 -23 -11 -40 -25z"/>
<path d="M2470 1323 c0 -5 14 -17 30 -26 17 -10 30 -14 30 -10 0 5 -13 17 -30
26 -16 10 -30 14 -30 10z"/>
<path d="M1371 1279 c-18 -11 -31 -22 -28 -25 4 -5 77 34 77 42 0 9 -16 3 -49
-17z"/>
<path d="M2465 1275 c20 -15 39 -24 42 -22 7 7 -48 47 -65 47 -8 0 2 -11 23
-25z"/>
<path d="M1392 1249 c-18 -12 -31 -24 -28 -26 5 -5 76 35 76 43 0 9 -16 3 -48
-17z"/>
<path d="M2410 1266 c0 -8 73 -47 77 -42 3 3 -10 14 -28 25 -33 20 -49 26 -49
17z"/>
<path d="M1415 1215 c-22 -13 -35 -25 -28 -25 12 0 83 39 83 46 0 9 -17 3 -55
-21z"/>
<path d="M2381 1236 c20 -18 89 -54 89 -47 0 10 -65 51 -82 51 -6 0 -9 -2 -7
-4z"/>
<path d="M1453 1194 c-24 -14 -43 -30 -43 -35 0 -5 24 5 53 23 65 39 63 38 46
38 -8 -1 -33 -12 -56 -26z"/>
<path d="M2331 1217 c22 -18 119 -65 119 -59 0 11 -92 62 -111 62 -7 0 -10 -1
-8 -3z"/>
<path d="M1478 1163 c-27 -14 -48 -30 -48 -35 0 -4 26 6 58 24 69 38 69 38 51
38 -8 0 -35 -12 -61 -27z"/>
<path d="M2360 1155 c70 -38 74 -40 65 -25 -8 13 -100 60 -117 60 -7 0 16 -16
52 -35z"/>
<path d="M1498 1130 c-32 -17 -58 -40 -45 -40 8 0 97 52 97 56 0 8 -15 3 -52
-16z"/>
<path d="M2310 1142 c0 -4 20 -18 45 -30 25 -12 45 -18 45 -14 0 4 -20 18 -45
30 -25 12 -45 18 -45 14z"/>
<path d="M1513 1093 c-18 -9 -33 -20 -33 -25 0 -5 18 1 40 12 22 11 40 23 40
25 0 8 -13 5 -47 -12z"/>
<path d="M2300 1106 c0 -9 71 -48 77 -43 3 3 -10 15 -28 26 -33 20 -49 26 -49
17z"/>
<path d="M1527 1054 c-16 -9 -27 -18 -24 -20 7 -7 57 18 57 28 0 10 1 10 -33
-8z"/>
<path d="M2290 1065 c0 -8 61 -37 67 -31 3 2 -9 12 -26 20 -31 17 -41 19 -41
11z"/>
<path d="M1543 1023 c-7 -2 -13 -8 -13 -13 0 -10 38 -1 46 11 6 10 -13 11 -33
2z"/>
<path d="M2294 1015 c11 -8 25 -15 30 -15 6 0 2 7 -8 15 -11 8 -25 15 -30 15
-6 0 -2 -7 8 -15z"/>
<path d="M1564 985 c-10 -8 -14 -15 -8 -15 5 0 19 7 30 15 10 8 14 15 8 15 -5
0 -19 -7 -30 -15z"/>
<path d="M2260 991 c0 -10 30 -24 37 -17 3 2 -5 9 -16 16 -12 6 -21 7 -21 1z"/>
<path d="M1594 954 c-17 -14 -17 -15 -1 -10 10 3 23 6 28 6 5 0 9 5 9 10 0 14
-13 12 -36 -6z"/>
<path d="M2230 961 c0 -10 30 -24 37 -17 3 2 -5 9 -16 16 -12 6 -21 7 -21 1z"/>
<path d="M1631 929 c-40 -16 -17 -20 25 -5 22 8 30 15 19 15 -11 0 -31 -5 -44
-10z"/>
<path d="M2199 925 c42 -19 52 -19 27 0 -11 8 -29 15 -40 15 -16 -1 -12 -5 13
-15z"/>
<path d="M1660 894 l-25 -15 30 6 c17 4 34 11 40 16 15 15 -17 10 -45 -7z"/>
<path d="M2155 902 c6 -5 21 -13 35 -17 17 -5 22 -4 15 3 -5 5 -21 13 -35 17
-17 5 -22 4 -15 -3z"/>
<path d="M1700 868 c-14 -6 -20 -12 -14 -14 15 -6 60 11 48 18 -5 3 -20 1 -34
-4z"/>
<path d="M2135 860 c11 -5 27 -9 35 -9 13 -1 13 0 0 9 -8 5 -24 9 -35 9 l-20
0 20 -9z"/>
<path d="M1778 846 c-32 -7 -61 -16 -65 -21 -5 -4 8 -5 27 -1 19 4 52 10 73
13 20 3 37 10 37 14 0 11 1 11 -72 -5z"/>
<path d="M1994 851 c4 -6 19 -11 34 -11 15 0 44 -5 65 -11 22 -6 41 -8 44 -5
5 5 -47 20 -111 32 -28 5 -37 4 -32 -5z"/>
<path d="M1801 810 c-66 -14 -64 -23 4 -13 73 10 160 10 240 1 47 -6 55 -5 35
4 -33 14 -223 19 -279 8z"/>
<path d="M1825 770 c-17 -4 27 -7 105 -7 94 0 123 2 95 8 -49 10 -159 9 -200
-1z"/>
<path d="M1860 730 c-10 -7 10 -10 65 -10 55 0 75 3 65 10 -8 5 -37 10 -65 10
-27 0 -57 -5 -65 -10z"/>
<path d="M1918 688 c9 -9 15 -9 24 0 9 9 7 12 -12 12 -19 0 -21 -3 -12 -12z"/>
<path d="M2877 3423 c-4 -3 2 -13 13 -20 20 -14 20 -15 -15 -63 -38 -52 -41
-60 -22 -60 6 1 27 21 45 46 32 43 35 45 52 29 13 -11 20 -13 25 -5 4 6 5 12
4 14 -2 1 -23 17 -45 34 -45 34 -47 35 -57 25z"/>
<path d="M757 3414 c-8 -8 1 -24 14 -24 5 0 9 7 9 15 0 15 -12 20 -23 9z"/>
<path d="M922 3395 c-18 -12 -35 -25 -38 -28 -3 -3 13 -30 36 -61 45 -59 46
-60 100 -17 34 27 16 40 -19 13 -26 -19 -30 -20 -42 -6 -11 14 -10 18 4 29 17
12 23 35 10 35 -3 0 -15 -7 -25 -16 -16 -16 -18 -15 -24 1 -5 13 1 25 20 40
38 30 19 39 -22 10z"/>
<path d="M3080 3405 c0 -8 5 -15 10 -15 6 0 10 7 10 15 0 8 -4 15 -10 15 -5 0
-10 -7 -10 -15z"/>
<path d="M1390 3395 c0 -8 5 -15 10 -15 6 0 10 7 10 15 0 8 -4 15 -10 15 -5 0
-10 -7 -10 -15z"/>
<path d="M2447 3404 c-8 -8 1 -24 14 -24 5 0 9 7 9 15 0 15 -12 20 -23 9z"/>
<path d="M1317 3374 c-8 -8 1 -24 14 -24 5 0 9 7 9 15 0 15 -12 20 -23 9z"/>
<path d="M2517 3374 c-8 -8 1 -24 14 -24 5 0 9 7 9 15 0 15 -12 20 -23 9z"/>
<path d="M696 3362 c-3 -6 -1 -14 5 -17 15 -10 25 3 12 16 -7 7 -13 7 -17 1z"/>
<path d="M3137 3364 c-8 -8 1 -24 14 -24 5 0 9 7 9 15 0 15 -12 20 -23 9z"/>
<path d="M1247 3344 c-8 -8 1 -24 14 -24 5 0 9 7 9 15 0 15 -12 20 -23 9z"/>
<path d="M2587 3344 c-8 -8 1 -24 14 -24 5 0 9 7 9 15 0 15 -12 20 -23 9z"/>
<path d="M640 3295 c0 -9 5 -15 11 -13 6 2 11 8 11 13 0 5 -5 11 -11 13 -6 2
-11 -4 -11 -13z"/>
<path d="M1180 3295 c0 -9 5 -15 11 -13 6 2 11 8 11 13 0 5 -5 11 -11 13 -6 2
-11 -4 -11 -13z"/>
<path d="M2652 3299 c2 -6 8 -10 13 -10 5 0 11 4 13 10 2 6 -4 11 -13 11 -9 0
-15 -5 -13 -11z"/>
<path d="M3192 3299 c2 -6 8 -10 13 -10 5 0 11 4 13 10 2 6 -4 11 -13 11 -9 0
-15 -5 -13 -11z"/>
<path d="M776 3272 c-4 -6 2 -29 14 -51 11 -22 20 -43 20 -46 0 -3 -22 6 -49
20 -33 16 -52 21 -56 14 -9 -13 -12 -11 64 -49 40 -20 67 -28 73 -22 6 6 -3
34 -25 77 -19 39 -37 63 -41 57z"/>
<path d="M3125 3270 c-4 -6 7 -10 24 -10 17 0 31 5 31 10 0 6 -11 10 -24 10
-14 0 -28 -4 -31 -10z"/>
<path d="M1112 3259 c2 -6 8 -10 13 -10 5 0 11 4 13 10 2 6 -4 11 -13 11 -9 0
-15 -5 -13 -11z"/>
<path d="M2720 3255 c0 -9 5 -15 11 -13 6 2 11 8 11 13 0 5 -5 11 -11 13 -6 2
-11 -4 -11 -13z"/>
<path d="M3032 3253 c-13 -5 -42 -55 -42 -73 0 -19 48 -60 70 -60 31 0 70 44
70 78 0 47 -49 75 -98 55z m66 -25 c19 -19 14 -45 -14 -67 -20 -16 -31 -18
-45 -10 -26 13 -24 54 3 73 27 19 40 20 56 4z"/>
<path d="M580 3240 c0 -5 7 -10 15 -10 8 0 15 5 15 10 0 6 -7 10 -15 10 -8 0
-15 -4 -15 -10z"/>
<path d="M3250 3240 c0 -5 5 -10 10 -10 6 0 10 5 10 10 0 6 -4 10 -10 10 -5 0
-10 -4 -10 -10z"/>
<path d="M1050 3215 c0 -9 5 -15 11 -13 6 2 11 8 11 13 0 5 -5 11 -11 13 -6 2
-11 -4 -11 -13z"/>
<path d="M2787 3223 c-12 -11 -8 -23 8 -23 8 0 15 7 15 15 0 16 -12 20 -23 8z"/>
<path d="M536 3193 c-11 -11 -6 -23 9 -23 8 0 15 4 15 9 0 13 -16 22 -24 14z"/>
<path d="M3306 3193 c-11 -11 -6 -23 9 -23 8 0 15 4 15 9 0 13 -16 22 -24 14z"/>
<path d="M990 3165 c0 -8 5 -15 10 -15 6 0 10 7 10 15 0 8 -4 15 -10 15 -5 0
-10 -7 -10 -15z"/>
<path d="M2847 3174 c-8 -8 1 -24 14 -24 5 0 9 7 9 15 0 15 -12 20 -23 9z"/>
<path d="M480 3120 c0 -5 7 -10 15 -10 8 0 15 5 15 10 0 6 -7 10 -15 10 -8 0
-15 -4 -15 -10z"/>
<path d="M930 3115 c0 -9 5 -15 11 -13 6 2 11 8 11 13 0 5 -5 11 -11 13 -6 2
-11 -4 -11 -13z"/>
<path d="M2902 3118 c6 -18 28 -21 28 -4 0 9 -7 16 -16 16 -9 0 -14 -5 -12
-12z"/>
<path d="M3350 3120 c0 -5 7 -10 15 -10 8 0 15 5 15 10 0 6 -7 10 -15 10 -8 0
-15 -4 -15 -10z"/>
<path d="M606 3093 c-4 -4 2 -14 12 -23 79 -63 94 -72 102 -64 6 6 -11 26 -44
52 -59 45 -59 46 -70 35z"/>
<path d="M3190 3064 c-60 -47 -63 -51 -52 -58 5 -3 24 6 42 19 19 14 35 23 37
21 2 -2 -6 -25 -17 -51 -11 -27 -17 -52 -12 -57 12 -12 121 72 115 89 -5 12
-9 11 -27 -4 -57 -50 -60 -51 -41 -8 20 47 24 77 10 81 -5 2 -30 -13 -55 -32z"/>
<path d="M876 3073 c-11 -11 -6 -23 9 -23 8 0 15 4 15 9 0 13 -16 22 -24 14z"/>
<path d="M2960 3065 c0 -9 5 -15 11 -13 6 2 11 8 11 13 0 5 -5 11 -11 13 -6 2
-11 -4 -11 -13z"/>
<path d="M437 3064 c-8 -8 1 -24 14 -24 5 0 9 7 9 15 0 15 -12 20 -23 9z"/>
<path d="M3397 3064 c-8 -8 1 -24 14 -24 5 0 9 7 9 15 0 15 -12 20 -23 9z"/>
<path d="M820 3005 c0 -9 5 -15 11 -13 6 2 11 8 11 13 0 5 -5 11 -11 13 -6 2
-11 -4 -11 -13z"/>
<path d="M3012 3009 c2 -6 8 -10 13 -10 5 0 11 4 13 10 2 6 -4 11 -13 11 -9 0
-15 -5 -13 -11z"/>
<path d="M396 3003 c-11 -11 -6 -23 9 -23 8 0 15 4 15 9 0 13 -16 22 -24 14z"/>
<path d="M3440 2990 c0 -5 7 -10 15 -10 8 0 15 5 15 10 0 6 -7 10 -15 10 -8 0
-15 -4 -15 -10z"/>
<path d="M510 2961 c0 -5 16 -19 35 -31 19 -12 35 -24 35 -26 0 -3 -22 -2 -48
2 -36 4 -51 2 -60 -9 -11 -13 -4 -21 48 -52 34 -20 64 -34 68 -30 4 4 -2 13
-13 21 -64 43 -64 45 -3 42 78 -4 81 13 12 57 -55 36 -74 42 -74 26z"/>
<path d="M772 2949 c2 -6 8 -10 13 -10 5 0 11 4 13 10 2 6 -4 11 -13 11 -9 0
-15 -5 -13 -11z"/>
<path d="M3062 2949 c2 -6 8 -10 13 -10 5 0 11 4 13 10 2 6 -4 11 -13 11 -9 0
-15 -5 -13 -11z"/>
<path d="M356 2933 c-11 -11 -6 -23 9 -23 8 0 15 4 15 9 0 13 -16 22 -24 14z"/>
<path d="M3480 2926 c0 -9 7 -16 16 -16 9 0 14 5 12 12 -6 18 -28 21 -28 4z"/>
<path d="M722 2889 c2 -6 8 -10 13 -10 5 0 11 4 13 10 2 6 -4 11 -13 11 -9 0
-15 -5 -13 -11z"/>
<path d="M3110 2885 c0 -9 5 -15 11 -13 6 2 11 8 11 13 0 5 -5 11 -11 13 -6 2
-11 -4 -11 -13z"/>
<path d="M3330 2883 c-32 -12 -50 -37 -50 -69 0 -62 72 -82 120 -34 50 50 -3
128 -70 103z m65 -44 c10 -30 -22 -61 -59 -57 -20 2 -32 9 -34 21 -9 47 79 81
93 36z"/>
<path d="M317 2864 c-8 -8 1 -24 14 -24 5 0 9 7 9 15 0 15 -12 20 -23 9z"/>
<path d="M3520 2855 c0 -9 5 -15 11 -13 6 2 11 8 11 13 0 5 -5 11 -11 13 -6 2
-11 -4 -11 -13z"/>
<path d="M680 2825 c0 -9 5 -15 11 -13 6 2 11 8 11 13 0 5 -5 11 -11 13 -6 2
-11 -4 -11 -13z"/>
<path d="M3157 2833 c-12 -11 -8 -23 8 -23 8 0 15 7 15 15 0 16 -12 20 -23 8z"/>
<path d="M280 2785 c0 -9 5 -15 11 -13 6 2 11 8 11 13 0 5 -5 11 -11 13 -6 2
-11 -4 -11 -13z"/>
<path d="M3556 2793 c-11 -11 -6 -23 9 -23 8 0 15 4 15 9 0 13 -16 22 -24 14z"/>
<path d="M640 2755 c0 -9 5 -15 11 -13 6 2 11 8 11 13 0 5 -5 11 -11 13 -6 2
-11 -4 -11 -13z"/>
<path d="M3192 2759 c2 -6 8 -10 13 -10 5 0 11 4 13 10 2 6 -4 11 -13 11 -9 0
-15 -5 -13 -11z"/>
<path d="M390 2750 c0 -5 20 -18 45 -29 51 -22 65 -45 43 -67 -13 -14 -21 -13
-66 9 -40 19 -52 22 -56 11 -6 -15 72 -54 110 -54 26 0 44 26 44 64 0 21 -10
31 -50 51 -53 27 -70 31 -70 15z"/>
<path d="M3586 2723 c-11 -11 -6 -23 9 -23 8 0 15 4 15 9 0 13 -16 22 -24 14z"/>
<path d="M250 2710 c0 -5 5 -10 10 -10 6 0 10 5 10 10 0 6 -4 10 -10 10 -5 0
-10 -4 -10 -10z"/>
<path d="M600 2690 c0 -5 7 -10 15 -10 8 0 15 5 15 10 0 6 -7 10 -15 10 -8 0
-15 -4 -15 -10z"/>
<path d="M3230 2690 c0 -5 7 -10 15 -10 8 0 15 5 15 10 0 6 -7 10 -15 10 -8 0
-15 -4 -15 -10z"/>
<path d="M3419 2656 c-34 -12 -54 -26 -52 -33 4 -10 13 -9 40 2 55 23 60 18
17 -20 l-39 -34 35 -1 c19 -1 44 -5 54 -9 16 -6 10 -10 -27 -20 -30 -9 -44
-18 -40 -26 3 -11 18 -8 66 10 75 28 89 55 28 55 -52 0 -57 11 -21 45 27 26
31 56 6 54 -6 -1 -36 -11 -67 -23z"/>
<path d="M220 2635 c0 -9 5 -15 11 -13 6 2 11 8 11 13 0 5 -5 11 -11 13 -6 2
-11 -4 -11 -13z"/>
<path d="M3612 2639 c2 -6 8 -10 13 -10 5 0 11 4 13 10 2 6 -4 11 -13 11 -9 0
-15 -5 -13 -11z"/>
<path d="M570 2620 c0 -5 5 -10 10 -10 6 0 10 5 10 10 0 6 -4 10 -10 10 -5 0
-10 -4 -10 -10z"/>
<path d="M3260 2620 c0 -5 7 -10 15 -10 8 0 15 5 15 10 0 6 -7 10 -15 10 -8 0
-15 -4 -15 -10z"/>
<path d="M4132 2088 l3 -513 235 -3 c247 -3 447 9 527 33 131 39 208 189 173
336 -16 66 -86 141 -149 160 -48 14 -51 22 -12 38 38 16 87 68 105 113 22 51
20 143 -3 193 -22 49 -95 116 -148 135 -29 10 -123 15 -386 17 l-347 4 2 -513z
m547 287 c33 -16 41 -33 41 -80 0 -78 -30 -95 -170 -95 l-100 0 0 95 0 95 100
0 c69 0 110 -5 129 -15z m57 -408 c35 -41 33 -99 -4 -137 -23 -23 -41 -29 -93
-35 -35 -3 -91 -5 -124 -3 l-60 3 -3 103 -3 104 132 -4 c129 -3 131 -3 155
-31z"/>
<path d="M5110 2257 c0 -364 4 -408 51 -498 28 -57 104 -128 165 -156 110 -50
391 -58 507 -13 130 49 224 171 247 320 5 36 10 206 10 378 l0 312 -160 0
-160 0 0 -342 c0 -336 -1 -344 -23 -382 -30 -53 -77 -76 -153 -76 -67 0 -109
21 -148 73 -20 27 -21 41 -24 378 l-3 349 -154 0 -155 0 0 -343z"/>
<path d="M6211 2090 c-105 -281 -191 -512 -191 -515 0 -3 72 -5 159 -5 l160 0
16 58 c9 31 20 68 24 82 l8 25 183 0 183 0 26 -80 26 -80 317 -3 318 -2 2 192
3 193 155 6 c175 7 223 19 289 76 23 19 54 58 69 87 25 46 27 61 27 161 0 100
-2 115 -27 160 -33 64 -59 87 -133 122 l-60 28 -322 3 -323 3 -2 -491 -3 -491
-184 490 -185 491 -172 0 -172 0 -191 -510z m1407 289 c40 -14 63 -50 64 -101
1 -79 -55 -116 -179 -117 l-63 -1 0 115 0 115 74 0 c40 0 87 -5 104 -11z
m-990 -231 c29 -95 53 -176 52 -180 0 -5 -50 -8 -111 -8 -101 0 -111 2 -107
18 23 86 104 342 108 342 3 0 29 -78 58 -172z"/>
<path d="M196 2573 c-11 -11 -6 -23 9 -23 8 0 15 4 15 9 0 13 -16 22 -24 14z"/>
<path d="M3640 2565 c0 -9 5 -15 11 -13 6 2 11 8 11 13 0 5 -5 11 -11 13 -6 2
-11 -4 -11 -13z"/>
<path d="M542 2551 c4 -13 18 -16 19 -4 0 4 -5 9 -11 12 -7 2 -11 -2 -8 -8z"/>
<path d="M3292 2549 c2 -6 8 -10 13 -10 5 0 11 4 13 10 2 6 -4 11 -13 11 -9 0
-15 -5 -13 -11z"/>
<path d="M172 2489 c2 -6 8 -10 13 -10 5 0 11 4 13 10 2 6 -4 11 -13 11 -9 0
-15 -5 -13 -11z"/>
<path d="M3662 2489 c2 -6 8 -10 13 -10 5 0 11 4 13 10 2 6 -4 11 -13 11 -9 0
-15 -5 -13 -11z"/>
<path d="M512 2478 c6 -18 28 -21 28 -4 0 9 -7 16 -16 16 -9 0 -14 -5 -12 -12z"/>
<path d="M3320 2475 c0 -9 5 -15 11 -13 6 2 11 8 11 13 0 5 -5 11 -11 13 -6 2
-11 -4 -11 -13z"/>
<path d="M156 2423 c-11 -11 -6 -23 9 -23 8 0 15 4 15 9 0 13 -16 22 -24 14z"/>
<path d="M3686 2423 c-11 -11 -6 -23 9 -23 8 0 15 4 15 9 0 13 -16 22 -24 14z"/>
<path d="M342 2408 c-56 -8 -72 -13 -70 -25 4 -19 116 -89 126 -79 4 4 -1 14
-12 21 -25 18 -15 65 14 65 11 0 20 7 20 15 0 8 -1 14 -2 14 -2 -1 -36 -6 -76
-11z m12 -43 c-5 -12 -10 -12 -27 -3 -33 16 -33 18 1 18 24 0 30 -4 26 -15z"/>
<path d="M496 2413 c-11 -11 -6 -23 9 -23 8 0 15 4 15 9 0 13 -16 22 -24 14z"/>
<path d="M3346 2413 c-11 -11 -6 -23 9 -23 8 0 15 4 15 9 0 13 -16 22 -24 14z"/>
<path d="M3440 2393 c0 -7 9 -13 20 -13 27 0 40 -49 16 -62 -9 -5 -16 -15 -16
-23 0 -20 129 56 130 76 0 12 -17 18 -75 25 -59 8 -75 7 -75 -3z m100 -37
c-25 -14 -40 -13 -40 5 0 5 15 9 33 9 l32 -1 -25 -13z"/>
<path d="M140 2335 c0 -8 5 -15 10 -15 6 0 10 7 10 15 0 8 -4 15 -10 15 -5 0
-10 -7 -10 -15z"/>
<path d="M3697 2344 c-8 -8 1 -24 14 -24 5 0 9 7 9 15 0 15 -12 20 -23 9z"/>
<path d="M472 2329 c2 -6 8 -10 13 -10 5 0 11 4 13 10 2 6 -4 11 -13 11 -9 0
-15 -5 -13 -11z"/>
<path d="M3360 2325 c0 -9 5 -15 11 -13 6 2 11 8 11 13 0 5 -5 11 -11 13 -6 2
-11 -4 -11 -13z"/>
<path d="M127 2264 c-8 -8 1 -24 14 -24 5 0 9 7 9 15 0 15 -12 20 -23 9z"/>
<path d="M465 2259 c-10 -15 3 -25 16 -12 7 7 7 13 1 17 -6 3 -14 1 -17 -5z"/>
<path d="M3376 2263 c-11 -11 -6 -23 9 -23 8 0 15 4 15 9 0 13 -16 22 -24 14z"/>
<path d="M3710 2255 c0 -8 5 -15 10 -15 6 0 10 7 10 15 0 8 -4 15 -10 15 -5 0
-10 -7 -10 -15z"/>
<path d="M240 2206 c0 -13 -3 -38 -6 -55 -7 -35 11 -44 21 -10 6 19 12 20 66
14 50 -6 59 -4 59 9 0 11 -14 16 -57 18 -51 3 -58 6 -61 26 -4 29 -22 28 -22
-2z"/>
<path d="M120 2175 c0 -8 5 -15 10 -15 6 0 10 7 10 15 0 8 -4 15 -10 15 -5 0
-10 -7 -10 -15z"/>
<path d="M450 2175 c0 -9 5 -15 11 -13 6 2 11 8 11 13 0 5 -5 11 -11 13 -6 2
-11 -4 -11 -13z"/>
<path d="M3387 2183 c-12 -11 -8 -23 8 -23 8 0 15 7 15 15 0 16 -12 20 -23 8z"/>
<path d="M3717 2184 c-8 -8 1 -24 14 -24 5 0 9 7 9 15 0 15 -12 20 -23 9z"/>
<path d="M112 2099 c2 -6 8 -10 13 -10 5 0 11 4 13 10 2 6 -4 11 -13 11 -9 0
-15 -5 -13 -11z"/>
<path d="M442 2099 c2 -6 8 -10 13 -10 5 0 11 4 13 10 2 6 -4 11 -13 11 -9 0
-15 -5 -13 -11z"/>
<path d="M3390 2095 c0 -9 5 -15 11 -13 6 2 11 8 11 13 0 5 -5 11 -11 13 -6 2
-11 -4 -11 -13z"/>
<path d="M3722 2099 c2 -6 8 -10 13 -10 5 0 11 4 13 10 2 6 -4 11 -13 11 -9 0
-15 -5 -13 -11z"/>
<path d="M3480 2080 c0 -28 19 -83 32 -92 7 -4 28 -8 46 -8 45 0 72 30 72 81
l0 40 -75 -2 c-60 -3 -75 -6 -75 -19z m125 -37 c-8 -31 -21 -43 -50 -43 -27 0
-45 18 -45 47 0 21 4 23 51 23 51 0 51 0 44 -27z"/>
<path d="M110 2020 c0 -5 7 -10 15 -10 8 0 15 5 15 10 0 6 -7 10 -15 10 -8 0
-15 -4 -15 -10z"/>
<path d="M440 2020 c0 -5 7 -10 15 -10 8 0 15 5 15 10 0 6 -7 10 -15 10 -8 0
-15 -4 -15 -10z"/>
<path d="M3390 2020 c0 -5 7 -10 15 -10 8 0 15 5 15 10 0 6 -7 10 -15 10 -8 0
-15 -4 -15 -10z"/>
<path d="M3720 2020 c0 -5 7 -10 15 -10 8 0 15 5 15 10 0 6 -7 10 -15 10 -8 0
-15 -4 -15 -10z"/>
<path d="M230 1980 c0 -12 13 -14 70 -12 96 5 96 27 0 27 -56 0 -70 -3 -70
-15z"/>
<path d="M116 1953 c-11 -11 -6 -23 9 -23 8 0 15 4 15 9 0 13 -16 22 -24 14z"/>
<path d="M446 1953 c-11 -11 -6 -23 9 -23 8 0 15 4 15 9 0 13 -16 22 -24 14z"/>
<path d="M3390 1945 c0 -9 5 -15 11 -13 6 2 11 8 11 13 0 5 -5 11 -11 13 -6 2
-11 -4 -11 -13z"/>
<path d="M3726 1953 c-11 -11 -6 -23 9 -23 8 0 15 4 15 9 0 13 -16 22 -24 14z"/>
<path d="M120 1865 c0 -8 5 -15 10 -15 6 0 10 7 10 15 0 8 -4 15 -10 15 -5 0
-10 -7 -10 -15z"/>
<path d="M450 1865 c0 -9 5 -15 11 -13 6 2 11 8 11 13 0 5 -5 11 -11 13 -6 2
-11 -4 -11 -13z"/>
<path d="M3382 1868 c6 -18 28 -21 28 -4 0 9 -7 16 -16 16 -9 0 -14 -5 -12
-12z"/>
<path d="M3717 1874 c-8 -8 1 -24 14 -24 5 0 9 7 9 15 0 15 -12 20 -23 9z"/>
<path d="M3476 1848 c-9 -35 -7 -78 3 -78 6 0 11 15 13 33 2 24 8 32 23 32 15
0 19 -6 18 -22 -3 -28 17 -30 24 -3 9 34 33 24 33 -14 0 -19 5 -38 10 -41 6
-3 10 3 10 13 0 11 3 33 6 50 6 29 4 31 -32 37 -106 17 -101 17 -108 -7z"/>
<path d="M349 1829 c-23 -17 -28 -17 -39 -4 -31 37 -68 -1 -62 -64 3 -33 8
-41 21 -37 9 3 42 8 73 11 42 5 55 11 51 21 -3 9 -14 11 -34 7 -37 -7 -39 13
-3 42 35 28 28 50 -7 24z m-44 -49 c0 -16 -6 -26 -17 -28 -14 -3 -18 3 -18 28
0 25 4 31 18 28 11 -2 17 -12 17 -28z"/>
<path d="M127 1794 c-8 -8 1 -24 14 -24 5 0 9 7 9 15 0 15 -12 20 -23 9z"/>
<path d="M462 1791 c4 -13 18 -16 19 -4 0 4 -5 9 -11 12 -7 2 -11 -2 -8 -8z"/>
<path d="M3372 1789 c2 -6 8 -10 13 -10 5 0 11 4 13 10 2 6 -4 11 -13 11 -9 0
-15 -5 -13 -11z"/>
<path d="M3710 1785 c0 -8 5 -15 10 -15 6 0 10 7 10 15 0 8 -4 15 -10 15 -5 0
-10 -7 -10 -15z"/>
<path d="M476 1723 c-11 -11 -6 -23 9 -23 8 0 15 4 15 9 0 13 -16 22 -24 14z"/>
<path d="M3360 1715 c0 -9 5 -15 11 -13 6 2 11 8 11 13 0 5 -5 11 -11 13 -6 2
-11 -4 -11 -13z"/>
<path d="M140 1705 c0 -8 5 -15 10 -15 6 0 10 7 10 15 0 8 -4 15 -10 15 -5 0
-10 -7 -10 -15z"/>
<path d="M3697 1714 c-8 -8 1 -24 14 -24 5 0 9 7 9 15 0 15 -12 20 -23 9z"/>
<path d="M492 1639 c2 -6 8 -10 13 -10 5 0 11 4 13 10 2 6 -4 11 -13 11 -9 0
-15 -5 -13 -11z"/>
<path d="M3342 1639 c2 -6 8 -10 13 -10 5 0 11 4 13 10 2 6 -4 11 -13 11 -9 0
-15 -5 -13 -11z"/>
<path d="M152 1629 c2 -6 8 -10 13 -10 5 0 11 4 13 10 2 6 -4 11 -13 11 -9 0
-15 -5 -13 -11z"/>
<path d="M407 1634 c-3 -6 -2 -25 3 -42 5 -20 5 -34 -1 -38 -15 -9 -39 4 -39
21 0 8 -7 15 -15 15 -11 0 -12 -5 -5 -24 7 -19 5 -26 -6 -30 -23 -9 -23 -9
-30 29 -3 20 -11 34 -16 33 -11 -4 -11 -8 -2 -56 4 -18 9 -34 13 -36 4 -3 36
3 73 12 l65 18 -16 54 c-9 30 -20 50 -24 44z"/>
<path d="M3682 1629 c2 -6 8 -10 13 -10 5 0 11 4 13 10 2 6 -4 11 -13 11 -9 0
-15 -5 -13 -11z"/>
<path d="M517 1573 c-12 -11 -8 -23 8 -23 8 0 15 7 15 15 0 16 -12 20 -23 8z"/>
<path d="M3320 1565 c0 -9 5 -15 11 -13 6 2 11 8 11 13 0 5 -5 11 -11 13 -6 2
-11 -4 -11 -13z"/>
<path d="M3420 1564 c0 -8 11 -16 25 -20 22 -6 24 -10 19 -43 -10 -61 47 -86
72 -31 29 63 29 63 -46 86 -55 17 -70 19 -70 8z m110 -52 c0 -5 -6 -17 -14
-28 -17 -23 -41 -8 -30 19 6 17 44 24 44 9z"/>
<path d="M176 1563 c-11 -11 -6 -23 9 -23 8 0 15 4 15 9 0 13 -16 22 -24 14z"/>
<path d="M3666 1563 c-11 -11 -6 -23 9 -23 8 0 15 4 15 9 0 13 -16 22 -24 14z"/>
<path d="M230 1546 c0 -13 20 -26 41 -26 18 0 8 17 -16 28 -20 9 -25 9 -25 -2z"/>
<path d="M545 1499 c-10 -15 3 -25 16 -12 7 7 7 13 1 17 -6 3 -14 1 -17 -5z"/>
<path d="M3296 1503 c-11 -11 -6 -23 9 -23 8 0 15 4 15 9 0 13 -16 22 -24 14z"/>
<path d="M192 1479 c2 -6 8 -10 13 -10 5 0 11 4 13 10 2 6 -4 11 -13 11 -9 0
-15 -5 -13 -11z"/>
<path d="M3640 1475 c0 -9 5 -15 11 -13 6 2 11 8 11 13 0 5 -5 11 -11 13 -6 2
-11 -4 -11 -13z"/>
<path d="M422 1399 c-75 -34 -77 -53 -7 -57 l48 -3 -33 -34 c-23 -24 -30 -37
-23 -49 8 -14 16 -12 71 14 34 16 62 34 62 41 0 6 -6 9 -12 6 -7 -3 -31 -13
-53 -22 l-40 -17 40 41 39 41 -59 0 -60 1 52 22 c32 14 49 27 45 34 -5 8 -27
2 -70 -18z"/>
<path d="M570 1420 c0 -5 5 -10 10 -10 6 0 10 5 10 10 0 6 -4 10 -10 10 -5 0
-10 -4 -10 -10z"/>
<path d="M3260 1420 c0 -5 7 -10 15 -10 8 0 15 5 15 10 0 6 -7 10 -15 10 -8 0
-15 -4 -15 -10z"/>
<path d="M220 1405 c0 -9 5 -15 11 -13 6 2 11 8 11 13 0 5 -5 11 -11 13 -6 2
-11 -4 -11 -13z"/>
<path d="M3616 1413 c-11 -11 -6 -23 9 -23 8 0 15 4 15 9 0 13 -16 22 -24 14z"/>
<path d="M600 1350 c0 -5 7 -10 15 -10 8 0 15 5 15 10 0 6 -7 10 -15 10 -8 0
-15 -4 -15 -10z"/>
<path d="M3230 1350 c0 -5 7 -10 15 -10 8 0 15 5 15 10 0 6 -7 10 -15 10 -8 0
-15 -4 -15 -10z"/>
<path d="M3330 1341 c-23 -45 -13 -69 41 -97 36 -18 55 -22 62 -15 7 7 -4 16
-37 30 -52 23 -66 45 -43 68 14 15 20 14 66 -9 35 -17 52 -21 55 -13 5 14 -75
55 -109 55 -14 0 -29 -8 -35 -19z"/>
<path d="M250 1331 c0 -6 5 -13 10 -16 6 -3 10 1 10 9 0 9 -4 16 -10 16 -5 0
-10 -4 -10 -9z"/>
<path d="M3582 1329 c2 -6 8 -10 13 -10 5 0 11 4 13 10 2 6 -4 11 -13 11 -9 0
-15 -5 -13 -11z"/>
<path d="M640 1285 c0 -9 5 -15 11 -13 6 2 11 8 11 13 0 5 -5 11 -11 13 -6 2
-11 -4 -11 -13z"/>
<path d="M3196 1293 c-11 -11 -6 -23 9 -23 8 0 15 4 15 9 0 13 -16 22 -24 14z"/>
<path d="M280 1255 c0 -9 5 -15 11 -13 6 2 11 8 11 13 0 5 -5 11 -11 13 -6 2
-11 -4 -11 -13z"/>
<path d="M3552 1259 c2 -6 8 -10 13 -10 5 0 11 4 13 10 2 6 -4 11 -13 11 -9 0
-15 -5 -13 -11z"/>
<path d="M680 1215 c0 -9 5 -15 11 -13 6 2 11 8 11 13 0 5 -5 11 -11 13 -6 2
-11 -4 -11 -13z"/>
<path d="M3152 1218 c6 -18 28 -21 28 -4 0 9 -7 16 -16 16 -9 0 -14 -5 -12
-12z"/>
<path d="M587 1204 c-4 -4 2 -22 14 -40 19 -32 19 -33 1 -43 -14 -7 -21 -5
-30 10 -7 11 -17 17 -22 14 -6 -4 -5 -14 2 -25 10 -15 10 -22 0 -32 -11 -11
-15 -10 -22 2 -20 35 -37 52 -43 44 -3 -6 6 -28 20 -50 l26 -41 59 39 59 39
-22 37 c-29 48 -34 54 -42 46z"/>
<path d="M317 1194 c-8 -8 1 -24 14 -24 5 0 9 7 9 15 0 15 -12 20 -23 9z"/>
<path d="M3520 1185 c0 -9 5 -15 11 -13 6 2 11 8 11 13 0 5 -5 11 -11 13 -6 2
-11 -4 -11 -13z"/>
<path d="M3216 1139 c-15 -22 -24 -45 -20 -50 4 -7 15 2 26 20 22 34 26 35 48
21 12 -7 12 -11 -3 -28 -16 -17 -16 -20 -2 -25 8 -4 15 -3 15 1 0 4 4 13 9 21
8 12 12 12 25 2 14 -12 14 -16 -4 -41 -12 -17 -16 -31 -11 -35 10 -5 68 72 60
79 -7 5 -93 62 -105 69 -7 4 -23 -10 -38 -34z"/>
<path d="M726 1163 c-11 -11 -6 -23 9 -23 8 0 15 4 15 9 0 13 -16 22 -24 14z"/>
<path d="M3110 1155 c0 -9 5 -15 11 -13 6 2 11 8 11 13 0 5 -5 11 -11 13 -6 2
-11 -4 -11 -13z"/>
<path d="M352 1119 c2 -6 8 -10 13 -10 5 0 11 4 13 10 2 6 -4 11 -13 11 -9 0
-15 -5 -13 -11z"/>
<path d="M3480 1114 c0 -9 5 -14 12 -12 18 6 21 28 4 28 -9 0 -16 -7 -16 -16z"/>
<path d="M776 1103 c-11 -11 -6 -23 9 -23 8 0 15 4 15 9 0 13 -16 22 -24 14z"/>
<path d="M3066 1103 c-11 -11 -6 -23 9 -23 8 0 15 4 15 9 0 13 -16 22 -24 14z"/>
<path d="M392 1049 c2 -6 8 -10 13 -10 5 0 11 4 13 10 2 6 -4 11 -13 11 -9 0
-15 -5 -13 -11z"/>
<path d="M3440 1050 c0 -5 7 -10 15 -10 8 0 15 5 15 10 0 6 -7 10 -15 10 -8 0
-15 -4 -15 -10z"/>
<path d="M820 1035 c0 -9 5 -15 11 -13 6 2 11 8 11 13 0 5 -5 11 -11 13 -6 2
-11 -4 -11 -13z"/>
<path d="M3016 1043 c-11 -11 -6 -23 9 -23 8 0 15 4 15 9 0 13 -16 22 -24 14z"/>
<path d="M667 983 c-34 -30 -52 -52 -46 -57 5 -6 20 0 37 17 15 15 31 27 34
27 4 0 0 -20 -8 -45 -26 -74 -8 -82 56 -25 62 54 62 81 1 32 l-40 -32 18 54
c28 79 14 86 -52 29z"/>
<path d="M3091 975 c-17 -20 -31 -41 -31 -48 0 -18 21 -37 41 -37 9 0 19 -9
22 -20 8 -30 39 -24 73 13 l30 32 -52 48 -51 48 -32 -36z m48 -18 c8 -11 6
-18 -8 -31 -31 -28 -58 3 -29 32 15 15 23 15 37 -1z m46 -37 c8 -13 -13 -40
-31 -40 -17 0 -18 22 -2 38 15 15 25 15 33 2z"/>
<path d="M437 994 c-8 -8 1 -24 14 -24 5 0 9 7 9 15 0 15 -12 20 -23 9z"/>
<path d="M3397 994 c-8 -8 1 -24 14 -24 5 0 9 7 9 15 0 15 -12 20 -23 9z"/>
<path d="M872 979 c2 -6 8 -10 13 -10 5 0 11 4 13 10 2 6 -4 11 -13 11 -9 0
-15 -5 -13 -11z"/>
<path d="M2960 975 c0 -9 5 -15 11 -13 6 2 11 8 11 13 0 5 -5 11 -11 13 -6 2
-11 -4 -11 -13z"/>
<path d="M930 925 c0 -9 5 -15 11 -13 6 2 11 8 11 13 0 5 -5 11 -11 13 -6 2
-11 -4 -11 -13z"/>
<path d="M2906 933 c-11 -11 -6 -23 9 -23 8 0 15 4 15 9 0 13 -16 22 -24 14z"/>
<path d="M480 920 c0 -5 7 -10 15 -10 8 0 15 5 15 10 0 6 -7 10 -15 10 -8 0
-15 -4 -15 -10z"/>
<path d="M3350 920 c0 -5 7 -10 15 -10 8 0 15 5 15 10 0 6 -7 10 -15 10 -8 0
-15 -4 -15 -10z"/>
<path d="M990 875 c0 -8 5 -15 10 -15 6 0 10 7 10 15 0 8 -4 15 -10 15 -5 0
-10 -7 -10 -15z"/>
<path d="M2847 884 c-8 -8 1 -24 14 -24 5 0 9 7 9 15 0 15 -12 20 -23 9z"/>
<path d="M532 859 c2 -6 8 -10 13 -10 5 0 11 4 13 10 2 6 -4 11 -13 11 -9 0
-15 -5 -13 -11z"/>
<path d="M860 863 c0 -4 11 -18 25 -33 17 -18 22 -29 15 -40 -8 -13 -13 -13
-31 -2 -27 17 -37 7 -16 -16 13 -14 14 -21 5 -30 -9 -9 -18 -6 -39 14 -16 15
-29 22 -33 15 -4 -5 10 -25 30 -44 l37 -34 47 55 46 56 -37 33 c-36 33 -49 40
-49 26z"/>
<path d="M3302 859 c2 -6 8 -10 13 -10 5 0 11 4 13 10 2 6 -4 11 -13 11 -9 0
-15 -5 -13 -11z"/>
<path d="M2927 819 c-20 -17 -34 -35 -31 -41 4 -5 15 -1 28 11 31 30 41 27 79
-24 26 -34 37 -42 45 -32 7 9 -3 26 -37 65 l-46 52 -38 -31z"/>
<path d="M1050 825 c0 -9 5 -15 11 -13 6 2 11 8 11 13 0 5 -5 11 -11 13 -6 2
-11 -4 -11 -13z"/>
<path d="M2782 828 c6 -18 28 -21 28 -4 0 9 -7 16 -16 16 -9 0 -14 -5 -12 -12z"/>
<path d="M580 800 c0 -5 7 -10 15 -10 8 0 15 5 15 10 0 6 -7 10 -15 10 -8 0
-15 -4 -15 -10z"/>
<path d="M3250 800 c0 -5 5 -10 10 -10 6 0 10 5 10 10 0 6 -4 10 -10 10 -5 0
-10 -4 -10 -10z"/>
<path d="M1116 793 c-11 -11 -6 -23 9 -23 8 0 15 4 15 9 0 13 -16 22 -24 14z"/>
<path d="M2720 785 c0 -9 5 -15 11 -13 6 2 11 8 11 13 0 5 -5 11 -11 13 -6 2
-11 -4 -11 -13z"/>
<path d="M640 745 c0 -9 5 -15 11 -13 6 2 11 8 11 13 0 5 -5 11 -11 13 -6 2
-11 -4 -11 -13z"/>
<path d="M1180 745 c0 -9 5 -15 11 -13 6 2 11 8 11 13 0 5 -5 11 -11 13 -6 2
-11 -4 -11 -13z"/>
<path d="M2656 753 c-11 -11 -6 -23 9 -23 8 0 15 4 15 9 0 13 -16 22 -24 14z"/>
<path d="M3196 753 c-11 -11 -6 -23 9 -23 8 0 15 4 15 9 0 13 -16 22 -24 14z"/>
<path d="M2806 706 c7 -30 -28 -55 -51 -36 -8 7 -19 9 -25 5 -6 -3 13 -24 42
-47 29 -23 56 -46 59 -50 3 -5 11 -3 17 4 14 18 -16 148 -35 148 -9 0 -11 -8
-7 -24z m19 -84 c-2 -3 -11 1 -20 8 -12 10 -13 16 -3 27 10 13 13 11 20 -8 5
-12 6 -24 3 -27z"/>
<path d="M1020 705 c-7 -8 -10 -21 -7 -29 3 -8 -2 -16 -14 -19 -34 -9 -24 -51
18 -79 l37 -25 39 60 c21 33 37 60 35 61 -75 53 -87 56 -108 31z m54 -21 c18
-7 21 -30 6 -39 -14 -9 -50 13 -50 30 0 16 18 19 44 9z m-31 -56 c11 -9 14
-18 7 -28 -7 -12 -12 -12 -29 4 -31 28 -12 49 22 24z"/>
<path d="M1247 714 c-8 -8 1 -24 14 -24 5 0 9 7 9 15 0 15 -12 20 -23 9z"/>
<path d="M2587 714 c-8 -8 1 -24 14 -24 5 0 9 7 9 15 0 15 -12 20 -23 9z"/>
<path d="M695 691 c-6 -11 9 -23 19 -14 9 9 7 23 -3 23 -6 0 -12 -4 -16 -9z"/>
<path d="M3140 685 c0 -8 5 -15 10 -15 6 0 10 7 10 15 0 8 -4 15 -10 15 -5 0
-10 -7 -10 -15z"/>
<path d="M1317 684 c-8 -8 1 -24 14 -24 5 0 9 7 9 15 0 15 -12 20 -23 9z"/>
<path d="M2517 684 c-8 -8 1 -24 14 -24 5 0 9 7 9 15 0 15 -12 20 -23 9z"/>
<path d="M1390 645 c0 -8 5 -15 10 -15 6 0 10 7 10 15 0 8 -4 15 -10 15 -5 0
-10 -7 -10 -15z"/>
<path d="M2447 653 c-12 -11 -8 -23 8 -23 8 0 15 7 15 15 0 16 -12 20 -23 8z"/>
<path d="M757 644 c-8 -8 1 -24 14 -24 5 0 9 7 9 15 0 15 -12 20 -23 9z"/>
<path d="M3080 635 c0 -8 5 -15 10 -15 6 0 10 7 10 15 0 8 -4 15 -10 15 -5 0
-10 -7 -10 -15z"/>
<path d="M1460 615 c0 -9 5 -15 11 -13 6 2 11 8 11 13 0 5 -5 11 -11 13 -6 2
-11 -4 -11 -13z"/>
<path d="M2372 619 c2 -6 8 -10 13 -10 5 0 11 4 13 10 2 6 -4 11 -13 11 -9 0
-15 -5 -13 -11z"/>
<path d="M1537 604 c-8 -8 1 -24 14 -24 5 0 9 7 9 15 0 15 -12 20 -23 9z"/>
<path d="M2300 595 c0 -9 5 -15 11 -13 6 2 11 8 11 13 0 5 -5 11 -11 13 -6 2
-11 -4 -11 -13z"/>
<path d="M817 594 c-8 -8 1 -24 14 -24 5 0 9 7 9 15 0 15 -12 20 -23 9z"/>
<path d="M3017 594 c-8 -8 1 -24 14 -24 5 0 9 7 9 15 0 15 -12 20 -23 9z"/>
<path d="M1610 575 c0 -9 5 -15 11 -13 6 2 11 8 11 13 0 5 -5 11 -11 13 -6 2
-11 -4 -11 -13z"/>
<path d="M2222 579 c2 -6 8 -10 13 -10 5 0 11 4 13 10 2 6 -4 11 -13 11 -9 0
-15 -5 -13 -11z"/>
<path d="M1687 574 c-8 -8 1 -24 14 -24 5 0 9 7 9 15 0 15 -12 20 -23 9z"/>
<path d="M2150 565 c0 -8 5 -15 10 -15 6 0 10 7 10 15 0 8 -4 15 -10 15 -5 0
-10 -7 -10 -15z"/>
<path d="M1766 563 c-11 -11 -6 -23 9 -23 8 0 15 4 15 9 0 13 -16 22 -24 14z"/>
<path d="M2076 563 c-11 -11 -6 -23 9 -23 8 0 15 4 15 9 0 13 -16 22 -24 14z"/>
<path d="M1840 545 c0 -9 5 -15 11 -13 6 2 11 8 11 13 0 5 -5 11 -11 13 -6 2
-11 -4 -11 -13z"/>
<path d="M1917 554 c-8 -8 1 -24 14 -24 5 0 9 7 9 15 0 15 -12 20 -23 9z"/>
<path d="M1992 549 c2 -6 8 -10 13 -10 5 0 11 4 13 10 2 6 -4 11 -13 11 -9 0
-15 -5 -13 -11z"/>
<path d="M880 540 c0 -5 7 -10 15 -10 8 0 15 5 15 10 0 6 -7 10 -15 10 -8 0
-15 -4 -15 -10z"/>
<path d="M2950 540 c0 -5 7 -10 15 -10 8 0 15 5 15 10 0 6 -7 10 -15 10 -8 0
-15 -4 -15 -10z"/>
<path d="M1287 506 c-8 -20 20 -43 35 -28 14 14 3 42 -16 42 -7 0 -16 -6 -19
-14z"/>
<path d="M2540 500 c0 -13 7 -20 20 -20 13 0 20 7 20 20 0 13 -7 20 -20 20
-13 0 -20 -7 -20 -20z"/>
<path d="M947 504 c-8 -8 1 -24 14 -24 5 0 9 7 9 15 0 15 -12 20 -23 9z"/>
<path d="M2887 504 c-8 -8 1 -24 14 -24 5 0 9 7 9 15 0 15 -12 20 -23 9z"/>
<path d="M2242 482 c-29 -4 -48 -38 -32 -57 6 -8 9 -23 5 -35 -13 -41 38 -65
86 -40 20 11 26 54 9 65 -6 4 -8 14 -6 23 10 31 -18 51 -62 44z m36 -35 c3
-12 -4 -17 -22 -17 -27 0 -37 24 -13 33 19 8 32 2 35 -16z m17 -47 c8 -14 -13
-40 -32 -40 -7 0 -16 7 -20 16 -10 26 38 47 52 24z"/>
<path d="M1594 472 c-6 -4 -10 -23 -10 -42 0 -19 -3 -47 -7 -62 -5 -20 -4 -28
6 -28 9 0 19 25 29 70 14 69 11 82 -18 62z"/>
<path d="M1012 458 c6 -18 28 -21 28 -4 0 9 -7 16 -16 16 -9 0 -14 -5 -12 -12z"/>
<path d="M2820 455 c0 -9 5 -15 11 -13 6 2 11 8 11 13 0 5 -5 11 -11 13 -6 2
-11 -4 -11 -13z"/>
<path d="M1772 424 c3 -36 5 -39 33 -39 24 0 31 -5 33 -23 4 -27 -23 -40 -49
-24 -11 7 -20 8 -24 2 -9 -15 40 -33 69 -26 37 9 46 53 16 78 -12 10 -31 18
-41 18 -10 0 -19 5 -19 10 0 6 18 10 40 10 22 0 40 5 40 10 0 6 -15 10 -34 10
-19 0 -42 3 -51 6 -14 6 -16 0 -13 -32z"/>
<path d="M2028 453 c-29 -3 -48 -9 -48 -16 0 -9 13 -11 40 -9 l41 4 -21 -53
c-12 -29 -24 -57 -26 -61 -3 -4 1 -8 10 -8 8 0 24 26 40 68 28 72 30 83 19 80
-5 -1 -29 -3 -55 -5z"/>
<path d="M1082 419 c2 -6 8 -10 13 -10 5 0 11 4 13 10 2 6 -4 11 -13 11 -9 0
-15 -5 -13 -11z"/>
<path d="M2752 419 c2 -6 8 -10 13 -10 5 0 11 4 13 10 2 6 -4 11 -13 11 -9 0
-15 -5 -13 -11z"/>
<path d="M1156 393 c-11 -11 -6 -23 9 -23 8 0 15 4 15 9 0 13 -16 22 -24 14z"/>
<path d="M2680 385 c0 -9 5 -15 11 -13 6 2 11 8 11 13 0 5 -5 11 -11 13 -6 2
-11 -4 -11 -13z"/>
<path d="M1226 363 c-11 -11 -6 -23 9 -23 8 0 15 4 15 9 0 13 -16 22 -24 14z"/>
<path d="M2610 350 c0 -5 5 -10 10 -10 6 0 10 5 10 10 0 6 -4 10 -10 10 -5 0
-10 -4 -10 -10z"/>
<path d="M1300 325 c0 -9 5 -15 11 -13 6 2 11 8 11 13 0 5 -5 11 -11 13 -6 2
-11 -4 -11 -13z"/>
<path d="M2536 333 c-11 -11 -6 -23 9 -23 8 0 15 4 15 9 0 13 -16 22 -24 14z"/>
<path d="M1372 299 c2 -6 8 -10 13 -10 5 0 11 4 13 10 2 6 -4 11 -13 11 -9 0
-15 -5 -13 -11z"/>
<path d="M2460 295 c0 -9 5 -15 11 -13 6 2 11 8 11 13 0 5 -5 11 -11 13 -6 2
-11 -4 -11 -13z"/>
<path d="M1450 275 c0 -9 5 -15 11 -13 6 2 11 8 11 13 0 5 -5 11 -11 13 -6 2
-11 -4 -11 -13z"/>
<path d="M2387 284 c-8 -8 1 -24 14 -24 5 0 9 7 9 15 0 15 -12 20 -23 9z"/>
<path d="M1527 264 c-8 -8 1 -24 14 -24 5 0 9 7 9 15 0 15 -12 20 -23 9z"/>
<path d="M2310 255 c0 -8 5 -15 10 -15 6 0 10 7 10 15 0 8 -4 15 -10 15 -5 0
-10 -7 -10 -15z"/>
<path d="M1606 253 c-11 -11 -6 -23 9 -23 8 0 15 4 15 9 0 13 -16 22 -24 14z"/>
<path d="M2236 253 c-11 -11 -6 -23 9 -23 8 0 15 4 15 9 0 13 -16 22 -24 14z"/>
<path d="M1682 229 c2 -6 8 -10 13 -10 5 0 11 4 13 10 2 6 -4 11 -13 11 -9 0
-15 -5 -13 -11z"/>
<path d="M2152 229 c2 -6 8 -10 13 -10 5 0 11 4 13 10 2 6 -4 11 -13 11 -9 0
-15 -5 -13 -11z"/>
<path d="M1760 220 c0 -5 7 -10 15 -10 8 0 15 5 15 10 0 6 -7 10 -15 10 -8 0
-15 -4 -15 -10z"/>
<path d="M1840 215 c0 -8 5 -15 10 -15 6 0 10 7 10 15 0 8 -4 15 -10 15 -5 0
-10 -7 -10 -15z"/>
<path d="M1917 224 c-8 -8 1 -24 14 -24 5 0 9 7 9 15 0 15 -12 20 -23 9z"/>
<path d="M1997 224 c-8 -8 1 -24 14 -24 5 0 9 7 9 15 0 15 -12 20 -23 9z"/>
<path d="M2070 220 c0 -5 7 -10 15 -10 8 0 15 5 15 10 0 6 -7 10 -15 10 -8 0
-15 -4 -15 -10z"/>
</g>
</svg>
